<?xml version="1.0" encoding="utf-8"?>
<!-- Generator: Adobe Illustrator 21.1.0, SVG Export Plug-In . SVG Version: 6.00 Build 0)  -->
<svg version="1.1" id="Layer_4" xmlns="http://www.w3.org/2000/svg" xmlns:xlink="http://www.w3.org/1999/xlink" x="0px" y="0px"
	 viewBox="0 0 612 612" style="enable-background:new 0 0 612 612;" xml:space="preserve">
<style type="text/css">
	.st0{fill:#FFFFFF;}
</style>
<g>
	<g>
		<g>
			<path class="st0" d="M306,539.2c-62.3,0-120.9-24.3-164.9-68.3c-44-44-68.3-102.6-68.3-164.9S97,185.1,141.1,141.1
				c44-44,102.6-68.3,164.9-68.3c62.3,0,120.9,24.3,164.9,68.3c44,44,68.3,102.6,68.3,164.9S515,426.9,470.9,470.9
				C426.9,515,368.3,539.2,306,539.2z M306,75.8C179,75.8,75.8,179,75.8,306S179,536.2,306,536.2c127,0,230.2-103.3,230.2-230.2
				S433,75.8,306,75.8z"/>
		</g>
		<g>
			<path class="st0" d="M306,540.7c-62.7,0-121.6-24.4-166-68.7c-44.3-44.3-68.7-103.3-68.7-166c0-62.7,24.4-121.6,68.7-166
				c44.3-44.3,103.3-68.7,166-68.7S427.6,95.7,472,140c44.3,44.3,68.7,103.3,68.7,166c0,62.7-24.4,121.6-68.7,166
				C427.6,516.3,368.7,540.7,306,540.7z M74.3,306.2c0,61.8,24.1,119.9,67.9,163.7c43.7,43.7,101.8,67.8,163.7,67.9
				C178.2,537.6,74.4,433.8,74.3,306.2z M537.7,306.2c-0.1,127.6-103.9,231.4-231.5,231.5c61.8-0.1,119.9-24.1,163.7-67.9
				C513.6,426.1,537.7,368,537.7,306.2z M306,77.2C179.9,77.2,77.2,179.9,77.2,306S179.9,534.8,306,534.8
				c126.1,0,228.8-102.6,228.8-228.8S432.1,77.2,306,77.2z M306.2,74.3c127.6,0.1,231.4,103.9,231.5,231.5
				c-0.1-61.8-24.1-119.9-67.9-163.7C426.1,98.4,368,74.3,306.2,74.3z M305.8,74.3c-61.8,0-119.9,24.1-163.7,67.9
				C98.4,185.9,74.3,244,74.3,305.8C74.4,178.2,178.2,74.4,305.8,74.3z"/>
		</g>
		<g>
			<path class="st0" d="M306,610.5c-81.3,0-157.8-31.7-215.3-89.2C33.2,463.8,1.5,387.3,1.5,306c0-81.3,31.7-157.8,89.2-215.3
				S224.7,1.5,306,1.5c81.3,0,157.8,31.7,215.3,89.2s89.2,134,89.2,215.3c0,81.3-31.7,157.8-89.2,215.3
				C463.8,578.8,387.3,610.5,306,610.5z M306,4.5C139.7,4.5,4.5,139.7,4.5,306c0,166.3,135.3,301.5,301.5,301.5
				c166.3,0,301.5-135.3,301.5-301.5C607.5,139.7,472.3,4.5,306,4.5z"/>
		</g>
		<g>
			<path class="st0" d="M306,612c-81.7,0-158.6-31.8-216.4-89.6C31.8,464.6,0,387.7,0,306c0-81.7,31.8-158.6,89.6-216.4
				C147.4,31.8,224.3,0,306,0c81.7,0,158.6,31.8,216.4,89.6C580.2,147.4,612,224.3,612,306c0,81.7-31.8,158.6-89.6,216.4
				C464.6,580.2,387.7,612,306,612z M609,306.2C608.9,473.1,473.1,608.9,306.2,609c80.8-0.1,156.9-31.6,214-88.8
				C577.4,463.1,609,387.1,609,306.2z M3,306.2c0.1,80.8,31.6,156.9,88.8,214c57.2,57.2,133.2,88.7,214,88.8
				C138.9,608.9,3.1,473.1,3,306.2z M306,5.9C140.5,5.9,5.9,140.5,5.9,306c0,165.5,134.6,300.1,300.1,300.1S606.1,471.5,606.1,306
				C606.1,140.5,471.5,5.9,306,5.9z M306.2,3C473.1,3.1,608.9,138.9,609,305.8c-0.1-80.8-31.6-156.8-88.8-214
				C463.1,34.6,387.1,3,306.2,3z M305.8,3C224.9,3,148.9,34.6,91.7,91.7C34.6,148.9,3,224.9,3,305.8C3.1,138.9,138.9,3.1,305.8,3z"
				/>
		</g>
		<g>
			<polygon class="st0" points="61.3,298.5 19.9,294.4 20.7,286.3 50,272.1 22.4,269.3 23.1,261.6 64.6,265.6 63.7,274 35.1,288.1 
				62.1,290.7 			"/>
		</g>
		<g>
			<path class="st0" d="M79.4,212.5l-2.8,8.7l-10.1,0.6l-5,15.9l8,6.1l-2.7,8.5l-34.8-28l2.7-8.5L79.4,212.5z M59,222.3l-16.5,0.8
				l13,10L59,222.3z"/>
		</g>
		<g>
			<polygon class="st0" points="83.5,203.7 76.9,200 63.8,167.9 54.4,184.9 48.2,181.5 62.9,154.8 68.6,157.9 82.3,191.4 
				93.7,170.6 99.8,174 			"/>
		</g>
		<g>
			<path class="st0" d="M131.9,133.5l-5.9,7l-9.6-3.3L105.8,150l5,8.7l-5.7,6.8l-21.5-39.1l5.7-6.8L131.9,133.5z M109.3,134.8
				l-15.5-5.5l8.2,14.2L109.3,134.8z"/>
		</g>
		<g>
			<path class="st0" d="M141.7,124.5L116,91.8l13.9-11c3.5-2.8,6.3-4.5,8.3-5.1c2-0.7,4.1-0.6,6.3,0.1c2.1,0.8,4,2.1,5.5,4
				c1.9,2.5,2.8,5,2.6,7.8c-0.2,2.7-1.5,5.4-4.1,8.1c2.1-0.3,4-0.3,5.7,0c1.7,0.3,4.4,1,7.9,2.3l9,3.2l-7.9,6.2l-10.4-3.3
				c-3.7-1.2-6.1-1.9-7.3-2.1c-1.1-0.2-2.2-0.1-3.1,0.2c-0.9,0.3-2.1,1.1-3.6,2.3l-1.3,1.1l10.8,13.6L141.7,124.5z M133.5,100.5
				l4.9-3.9c3.2-2.5,5-4.2,5.6-5.1c0.6-0.9,0.8-1.8,0.8-2.8c-0.1-1-0.5-2-1.3-3c-0.9-1.1-1.9-1.8-3-2c-1.1-0.2-2.3,0-3.5,0.7
				c-0.6,0.3-2.2,1.6-4.9,3.7l-5.1,4.1L133.5,100.5z"/>
		</g>
		<g>
			<polygon class="st0" points="182.7,94.6 164,57.4 191.6,43.5 194.7,49.8 174.7,59.9 178.8,68.2 197.5,58.8 200.6,65 182,74.4 
				187.1,84.6 207.8,74.1 211,80.4 			"/>
		</g>
		<g>
			<polygon class="st0" points="235.1,72.2 225.6,39 213.7,42.3 211.8,35.6 243.6,26.5 245.6,33.3 233.7,36.7 243.2,69.9 			"/>
		</g>
		<g>
			<polygon class="st0" points="269.1,64 265.7,22.5 274.1,21.8 275.4,38.1 291.9,36.8 290.5,20.5 298.9,19.8 302.3,61.3 293.9,62 
				292.4,43.8 276,45.2 277.5,63.3 			"/>
		</g>
		<g>
			<path class="st0" d="M380.1,72.3l-8.9-2l-1.5-10l-16.2-3.7l-5.4,8.5l-8.7-2l25-37l8.7,2L380.1,72.3z M368.6,52.8l-2.2-16.3
				l-8.9,13.8L368.6,52.8z"/>
		</g>
		<g>
			<path class="st0" d="M423.1,74.2l6.3,5.7c-3,3.6-6.3,5.8-9.9,6.6c-3.6,0.8-7.4,0.3-11.4-1.6c-5-2.3-8.4-5.9-10-10.8
				c-1.7-4.9-1.1-10.4,1.6-16.3c2.9-6.3,6.8-10.4,11.6-12.4c4.8-2,9.9-1.8,15.2,0.7c4.6,2.1,7.8,5.2,9.4,9.3c1,2.4,1.2,5.3,0.7,8.7
				l-8.4-1.7c0.5-2.2,0.2-4.1-0.7-5.9c-0.9-1.8-2.4-3.1-4.4-4.1c-2.8-1.3-5.5-1.3-8.2-0.1c-2.7,1.2-5,4.1-7.1,8.6
				c-2.2,4.8-2.9,8.6-2.1,11.4c0.8,2.8,2.6,4.9,5.3,6.1c2,0.9,4.1,1.1,6.1,0.5C419.2,78.2,421.2,76.6,423.1,74.2z"/>
		</g>
		<g>
			<path class="st0" d="M468,122.1l-7.3-5.4l2.7-9.8L450,97l-8.4,5.5l-7.2-5.3l37.8-23.8l7.1,5.3L468,122.1z M465.4,99.6l4.6-15.8
				l-13.7,9.1L465.4,99.6z"/>
		</g>
		<g>
			<path class="st0" d="M508.6,103.7l10.2,11.5c2.3,2.6,3.9,4.7,4.7,6.4c1.1,2.3,1.5,4.7,1.3,7.2c-0.2,2.5-1,5-2.4,7.4
				c-1.4,2.4-3.5,5-6.5,7.6c-2.6,2.3-5.1,3.9-7.5,4.9c-3,1.2-5.8,1.7-8.5,1.6c-2-0.1-4.2-0.9-6.4-2.2c-1.7-1-3.5-2.7-5.6-5
				l-10.5-11.8L508.6,103.7z M508.9,114.7L488.3,133l4.2,4.7c1.6,1.8,2.8,2.9,3.7,3.5c1.2,0.8,2.3,1.3,3.5,1.4
				c1.2,0.1,2.7-0.2,4.5-1c1.8-0.8,3.9-2.3,6.3-4.4c2.4-2.1,4.1-4,5-5.6c0.9-1.6,1.4-3.1,1.4-4.5c0-1.4-0.3-2.8-1.1-4.2
				c-0.6-1.1-2-2.9-4.3-5.4L508.9,114.7z"/>
		</g>
		<g>
			<polygon class="st0" points="509.8,170.6 545.8,149.7 561.3,176.4 555.2,179.9 543.9,160.5 535.9,165.1 546.4,183.2 540.4,186.7 
				529.9,168.6 520.1,174.3 531.7,194.4 525.7,197.9 			"/>
		</g>
		<g>
			<polygon class="st0" points="532.4,212.2 572.1,199.4 575.9,211.4 551.2,227.3 580.5,225.7 584.3,237.7 544.7,250.4 542.3,243 
				573.5,233 539.8,235.1 537.3,227.4 566,209.6 534.8,219.6 			"/>
		</g>
		<g>
			<polygon class="st0" points="548.7,278.2 566.1,276.5 588.6,259 589.6,268.8 574.1,280.1 591.4,288.1 592.4,297.8 566.9,284.8 
				549.5,286.5 			"/>
		</g>
		<g>
			<polygon class="st0" points="69.7,473.5 102.1,447.4 107.3,453.9 94.6,464.2 104.8,476.8 117.5,466.6 122.7,473 90.3,499.1 
				85.1,492.7 99.3,481.3 89.1,468.6 74.9,480 			"/>
		</g>
		<g>
			
				<rect x="103.9" y="499.6" transform="matrix(0.6755 -0.7374 0.7374 0.6755 -330.9483 255.4541)" class="st0" width="41.6" height="8.3"/>
		</g>
		<g>
			<path class="st0" d="M156.6,535.4l3.9-5.9l14.9,9.8l-9.1,13.8c-2.4,0.5-5.3,0.3-8.8-0.4c-3.5-0.7-6.6-2-9.4-3.9
				c-3.6-2.4-6.2-5.2-7.9-8.5c-1.7-3.3-2.2-6.8-1.7-10.5c0.5-3.7,1.9-7.3,4.1-10.6c2.4-3.6,5.2-6.3,8.6-8.2c3.4-1.8,7-2.5,10.8-2.1
				c3,0.3,6.1,1.5,9.4,3.7c4.3,2.8,7,5.9,8.2,9.3c1.2,3.4,1.1,6.9-0.3,10.5l-7.7-3.2c0.6-2,0.6-4-0.1-5.8c-0.7-1.9-2-3.5-4-4.8
				c-3-2-6.1-2.6-9.1-1.8c-3.1,0.8-5.9,3.1-8.4,6.9c-2.7,4.1-3.8,7.8-3.4,11.1c0.5,3.3,2.1,5.8,5.1,7.8c1.5,1,3.1,1.6,4.9,2
				c1.8,0.4,3.6,0.5,5.1,0.4l2.9-4.4L156.6,535.4z"/>
		</g>
		<g>
			<polygon class="st0" points="186.2,569.7 201.3,530.9 209,533.9 203.1,549.1 218.3,555 224.2,539.8 231.9,542.8 216.9,581.6 
				209.1,578.6 215.7,561.6 200.6,555.7 194,572.7 			"/>
		</g>
		<g>
			<path class="st0" d="M271,579.9l8.1-0.3c0.3,2.8,1.2,4.8,2.6,6.2c1.4,1.4,3.4,2.2,5.9,2.3c2.7,0.2,4.7-0.3,6.1-1.3
				c1.4-1.1,2.2-2.3,2.3-3.9c0.1-1-0.2-1.8-0.7-2.6c-0.5-0.7-1.5-1.4-2.9-2c-0.9-0.4-3.1-1.1-6.5-2.2c-4.4-1.4-7.4-3-9.1-4.7
				c-2.4-2.4-3.4-5.3-3.2-8.6c0.1-2.1,0.9-4.1,2.2-5.8c1.3-1.8,3.1-3.1,5.4-3.9c2.3-0.8,5-1.1,8.2-0.9c5.1,0.3,8.9,1.7,11.4,4.2
				c2.5,2.5,3.6,5.6,3.5,9.4l-8.3-0.2c-0.2-2.2-0.9-3.7-2-4.8c-1.1-1-2.8-1.6-5.2-1.7c-2.4-0.2-4.3,0.2-5.7,1.1
				c-0.9,0.6-1.4,1.4-1.5,2.5c-0.1,1,0.3,1.8,1.1,2.6c1,1,3.5,2,7.4,3.3c4,1.2,6.9,2.4,8.7,3.6c1.9,1.2,3.3,2.7,4.3,4.5
				c1,1.9,1.4,4.1,1.2,6.7c-0.2,2.4-1,4.6-2.4,6.6c-1.4,2-3.4,3.4-5.8,4.3c-2.5,0.9-5.5,1.2-9,0.9c-5.2-0.3-9.1-1.8-11.7-4.4
				C272.7,588.2,271.3,584.6,271,579.9z"/>
		</g>
		<g>
			<path class="st0" d="M352.2,576.1l8.3,1.5c-0.6,4.7-2.2,8.3-4.8,10.8c-2.6,2.6-6,4.1-10.4,4.7c-5.4,0.7-10.1-0.5-14.1-3.8
				c-4-3.3-6.4-8.2-7.3-14.6c-0.9-6.9,0.1-12.4,3.1-16.7c3-4.3,7.3-6.8,13-7.6c5-0.7,9.2,0.3,12.7,2.8c2.1,1.5,3.8,3.9,5.2,7
				l-7.9,3.1c-0.8-2.1-2-3.6-3.7-4.7c-1.7-1-3.6-1.4-5.8-1.1c-3,0.4-5.3,1.8-6.9,4.3c-1.6,2.4-2,6.1-1.4,11
				c0.7,5.2,2.1,8.8,4.3,10.8c2.1,2,4.7,2.7,7.7,2.4c2.2-0.3,4-1.2,5.4-2.9C351.1,581.6,352,579.2,352.2,576.1z"/>
		</g>
		<g>
			<polygon class="st0" points="386.8,584.1 372.9,544.9 380.7,542.1 386.1,557.6 401.5,552.2 396,536.7 403.8,533.9 417.7,573.2 
				409.9,575.9 403.8,558.8 388.5,564.2 394.6,581.4 			"/>
		</g>
		<g>
			<path class="st0" d="M429.8,545.1c-2.2-3.6-3.6-7-4-10.1c-0.3-2.3-0.2-4.6,0.3-6.9c0.5-2.3,1.3-4.3,2.6-6
				c1.6-2.3,3.8-4.3,6.7-6.1c5.2-3.2,10.3-4.1,15.4-2.8c5.1,1.3,9.4,4.9,13,10.6c3.5,5.7,4.8,11.1,3.7,16.3
				c-1.1,5.1-4.2,9.3-9.3,12.4c-5.2,3.2-10.3,4.2-15.4,2.8C437.5,554.2,433.3,550.8,429.8,545.1z M436.9,540.4
				c2.5,4,5.3,6.5,8.4,7.4c3.1,0.9,6.1,0.5,8.9-1.2c2.8-1.7,4.5-4.2,5-7.4c0.5-3.2-0.5-6.8-3-10.9c-2.5-4.1-5.3-6.5-8.2-7.5
				c-3-0.9-5.9-0.5-8.9,1.3c-2.9,1.8-4.6,4.3-5.2,7.4C433.4,532.7,434.4,536.3,436.9,540.4z"/>
		</g>
		<g>
			<path class="st0" d="M478.5,512.7c-2.9-3.1-5-6-6.1-9c-0.8-2.2-1.2-4.4-1.2-6.8c0-2.3,0.4-4.5,1.2-6.4c1.1-2.6,2.8-5,5.2-7.3
				c4.4-4.2,9.2-6.2,14.4-6c5.3,0.2,10.2,2.8,14.9,7.6c4.7,4.8,7,9.9,7.1,15.1c0,5.2-2.1,9.9-6.4,14.1c-4.4,4.2-9.2,6.3-14.4,6.1
				C488,519.9,483.1,517.4,478.5,512.7z M484.5,506.5c3.3,3.4,6.5,5.2,9.8,5.5c3.2,0.3,6-0.8,8.4-3.1c2.4-2.3,3.5-5.1,3.3-8.3
				c-0.2-3.2-1.9-6.5-5.3-10c-3.3-3.4-6.5-5.3-9.6-5.5c-3.1-0.3-5.9,0.8-8.4,3.2c-2.5,2.4-3.6,5.1-3.5,8.3
				C479.4,499.8,481.1,503.1,484.5,506.5z"/>
		</g>
		<g>
			<polygon class="st0" points="536.7,480.8 502.8,457.2 507.6,450.4 535.7,470 547.5,453 553.2,457 			"/>
		</g>
		<g>
			<circle class="st0" cx="50.1" cy="377.3" r="8.9"/>
		</g>
		<g>
			<circle class="st0" cx="563.9" cy="377.3" r="8.9"/>
		</g>
	</g>
</g>
<g>
	<g>
		<path class="st0" d="M433.6,475.7l-0.5-0.8c-0.5-0.8-12.1-18.7-14.1-23.6l-0.2-0.5l0.5-0.2c6.4-1.8,12.6-3.7,18.4-5.8
			c0.1,0,3.3-1.1,6-4l0.5-0.5l12.2,23.4l-16.4-2.9L433.6,475.7z M420.2,451.4c2.2,4.9,11,18.6,13.3,22.1l5.9-14l15.2,2.7L444,442
			c-2.8,2.7-5.8,3.7-5.9,3.7C432.4,447.8,426.4,449.7,420.2,451.4z"/>
	</g>
	<g>
		<path class="st0" d="M410.6,423.6l-0.1-0.4c-1.8-5.8-1.6-10.8,0.6-14.8c3-5.6,8.6-7.3,8.8-7.3c1.8-0.2,3.5-0.3,5-0.3
			c8.6,0,10.5,3.4,10.8,5.5c0.8,4.9-5.3,12-12.3,14.2c-2.9,0.9-7,2-12.3,3.1L410.6,423.6z M420,402c0,0-5.4,1.7-8.1,6.8
			c-2,3.7-2.2,8.3-0.6,13.6c5-1.1,8.9-2.1,11.7-3c6.6-2.1,12.3-8.6,11.6-13.1C434,402.6,428.7,401,420,402L420,402z"/>
	</g>
	<g>
		<path class="st0" d="M342.8,448.1l-0.2-0.2c-0.1-0.2-3.6-5-1.5-9.8c1.9-4.3,7.6-7,17-8.1l0.1,1c-6.2,0.9-6.7,2.1-6.7,2.3
			c-0.1,0.4,0.6,0.9,1,1l8.8,4.8c2.4,1.4,3.4,2.7,3.2,3.9c-0.4,1.7-3,4-21.5,5.1L342.8,448.1z M350.9,432.4
			c-4.7,1.3-7.6,3.4-8.8,6.1c-1.6,3.7,0.6,7.6,1.2,8.6c17-1.1,20-3.1,20.3-4.3c0.2-0.7-0.8-1.7-2.7-2.8l-8.8-4.8
			c-0.2-0.1-1.7-0.9-1.5-2.1C350.6,432.9,350.7,432.6,350.9,432.4z"/>
	</g>
	<g>
		<path class="st0" d="M269.2,448.1l-0.3,0c-18.5-1.1-21.1-3.5-21.5-5.1c-0.3-1.2,0.7-2.5,3.1-3.9l8.8-4.8c0.4-0.2,1.1-0.7,1-1
			c0-0.2-0.5-1.4-6.7-2.3l0.1-1c9.4,1.1,15.1,3.8,17,8.1c2.1,4.8-1.3,9.6-1.5,9.8L269.2,448.1z M261.1,432.4
			c0.2,0.3,0.3,0.5,0.3,0.7c0.2,1.2-1.4,2-1.6,2.1l-8.8,4.8c-1.9,1.1-2.8,2.1-2.6,2.8c0.3,1.2,3.3,3.2,20.3,4.3
			c0.6-1,2.8-4.9,1.2-8.6C268.7,435.8,265.8,433.7,261.1,432.4z"/>
	</g>
	<g>
		<path class="st0" d="M201.4,423.6l-0.5-0.1c-5.2-1.1-9.3-2.1-12.3-3.1c-7-2.3-13.1-9.3-12.3-14.2c0.3-2.1,2.2-5.5,10.8-5.5
			c1.5,0,3.1,0.1,4.9,0.3c0.3,0.1,5.9,1.8,8.9,7.4c2.2,4,2.4,9,0.6,14.8L201.4,423.6z M187.2,401.7c-5.8,0-9.3,1.6-9.8,4.6
			c-0.7,4.5,5,11,11.6,13.1c2.8,0.9,6.9,1.9,11.7,3c1.6-5.3,1.4-9.9-0.6-13.6c-2.8-5.2-8.1-6.8-8.2-6.9
			C190.3,401.8,188.7,401.7,187.2,401.7z"/>
	</g>
	<g>
		<path class="st0" d="M178.4,475.7l-6.3-15l-16.4,2.9l12.2-23.4l0.5,0.5c2.8,2.9,6,4,6,4c5.8,2.1,12,4.1,18.4,5.8l0.5,0.2l-0.2,0.5
			c-2,5-13.6,22.9-14.1,23.6L178.4,475.7z M172.7,459.6l5.9,14c2.3-3.5,11.1-17.3,13.3-22.1c-6.3-1.7-12.3-3.7-17.9-5.7
			c-0.1,0-3.1-1-5.9-3.7l-10.6,20.3L172.7,459.6z"/>
	</g>
	<g>
		<path class="st0" d="M253.7,431c-1.7-0.3-3.6-0.5-5.8-0.7c-14-1.2-33.3-4-46.9-6.9c-5.2-1.1-9.3-2.1-12.3-3.1
			c-7.3-2.4-13.3-9.6-12.2-14.5c0.5-2.4,3.3-6.3,15.6-4.9c0.3,0.1,5.9,1.8,8.9,7.4c2.1,3.9,2.3,8.7,0.7,14.3
			c13.5,2.8,32.4,5.6,46.2,6.7c2.2,0.2,4.2,0.4,5.9,0.7L253.7,431z M187.2,401.7c-5.7,0-9.1,1.5-9.7,4.4c-1,4.4,4.9,11.2,11.5,13.3
			c2.8,0.9,6.8,1.9,11.7,3c1.6-5.3,1.4-9.9-0.6-13.6c-2.8-5.2-8.1-6.8-8.2-6.9C190.2,401.7,188.6,401.7,187.2,401.7z"/>
	</g>
	<g>
		<path class="st0" d="M292.9,448.7c-7.1,0-16-0.1-23.9-0.6c-18.5-1.1-21.1-3.5-21.5-5.1c-0.3-1.2,0.7-2.5,3.1-3.9l8.8-4.8
			c0.4-0.2,1.1-0.7,1-1c0-0.2-0.5-1.4-6.7-2.3l0.2-1c6.5,1,7.4,2.3,7.6,3.1c0.2,1.2-1.4,2-1.6,2.1l-8.8,4.8
			c-1.9,1.1-2.8,2.1-2.6,2.8c0.3,1.2,3.3,3.3,20.6,4.3c16.4,1,36.8,0.5,37,0.5l0,1C305.9,448.6,300.4,448.7,292.9,448.7z"/>
	</g>
	<g>
		<path class="st0" d="M306,481.3c-1.5,0-37.4-0.3-44.8-1.3c-6.6-0.9-22.2-3.1-21.6-14.7c0.1-1.2,0.1-2.4,0.1-3.6l0-1.5
			c0.2-8.2,0.5-18.3,11-21.1l0.3,1c-9,2.4-9.9,10.2-10.2,20.2l0,1.5c0,1.2-0.1,2.4-0.1,3.7c-0.5,10.6,13.9,12.6,20.8,13.6
			c7.3,1,44.3,1.3,44.6,1.3L306,481.3z"/>
	</g>
	<g>
		<path class="st0" d="M358.3,431l-0.2-1c1.7-0.3,3.7-0.5,5.9-0.7c13.8-1.2,32.7-3.9,46.2-6.7c-1.6-5.6-1.4-10.4,0.7-14.3
			c3-5.6,8.6-7.3,8.8-7.3c12.4-1.4,15.2,2.4,15.7,4.9c1.1,5-5,12.2-12.2,14.5c-2.9,0.9-7,2-12.3,3.1c-13.6,2.8-32.9,5.7-46.9,6.9
			C361.9,430.5,360,430.7,358.3,431z M420,402c0,0-5.4,1.7-8.1,6.8c-2,3.7-2.2,8.3-0.6,13.6c5-1.1,8.9-2.1,11.7-3
			c6.7-2.2,12.5-8.9,11.5-13.4C433.7,402.4,428.6,401,420,402L420,402z"/>
	</g>
	<g>
		<path class="st0" d="M319.1,448.7c-7.5,0-13-0.1-13.1-0.1l0-1c0.2,0,20.6,0.5,37-0.5c17.3-1.1,20.3-3.2,20.6-4.3
			c0.2-0.7-0.8-1.7-2.7-2.8l-8.8-4.8c-0.2-0.1-1.7-0.9-1.5-2.1c0.1-0.9,1.1-2.2,7.6-3.1l0.2,1c-6.2,0.9-6.7,2.1-6.7,2.3
			c-0.1,0.4,0.6,0.9,1,1l8.8,4.8c2.4,1.4,3.4,2.7,3.2,3.9c-0.4,1.7-3,4-21.5,5.1C335.1,448.6,326.2,448.7,319.1,448.7z"/>
	</g>
	<g>
		<path class="st0" d="M306,481.3l0-1c0.4,0,37.3-0.3,44.6-1.3c6.9-1,21.3-3,20.8-13.6c-0.1-1.2-0.1-2.5-0.1-3.7l0-1.5
			c-0.3-10-1.2-17.8-10.2-20.2l0.3-1c10.4,2.8,10.7,13,11,21.1l0,1.5c0,1.2,0.1,2.5,0.1,3.7c0.5,11.6-15,13.7-21.6,14.7
			C343.4,481,307.5,481.3,306,481.3z"/>
	</g>
	<g>
		<path class="st0" d="M185.9,428.1c-0.3-0.2-0.8-0.6-1.7-1c-0.4-0.2-0.6-0.3-1-0.5c-1.1,4-1.7,6.2-2.9,10.6c0.6,0.3,1,0.4,1.6,0.7
			c0.6,0.3,1,0.4,1.3,0.4c0.4,0,0.7-0.1,1.1-0.3c0.3-0.2,0.6-0.7,1-1.3c0.3-0.7,0.7-1.6,1-2.8c0.3-1.2,0.5-2.1,0.5-2.8
			c0-0.7,0-1.3-0.2-1.7C186.6,428.8,186.3,428.4,185.9,428.1z"/>
	</g>
	<g>
		<path class="st0" d="M227.5,444.5c1.2,0.2,1.8,0.3,3,0.4c-0.2-2.4-0.3-3.7-0.5-6.1C229,441.1,228.5,442.2,227.5,444.5z"/>
	</g>
	<g>
		<path class="st0" d="M174.4,429.7c0.1-2.9,0.2-4.3,0.3-7c-1.2,2-1.7,3.1-2.9,5.5C172.8,428.8,173.3,429.1,174.4,429.7z"/>
	</g>
	<g>
		<path class="st0" d="M447.4,422.9c-4.9-17.7-7.3-20.2-7.3-20.2s-4.8-5.7-20.3-1.7c-0.3,0.1,0.4,0.4,0.1,0.5
			c24.4-2.8,14.7,14.7,3.2,18.4c-3,1-7.4,1.6-12.3,2.6c-13.8,2.9-32.9,6.1-46.7,7.3c-2.3,0.2-4.4-0.1-6,0.2
			c-0.7,0.4-0.5,0.5-0.5,0.5c-11.2,1.7-5.2,4.3-5.2,4.3l4.9,2.7l4.1,1.1c10.8,2.9,11.1,13.2,11.3,21.5c4.2-0.5,24.1-2.8,46.7-9
			c6-1.7,12.3-3.6,18.4-5.8c0,0,3.3-1.1,6.2-4.1C447.3,437.8,449.9,432.1,447.4,422.9z M385,451.5c-1.4,0.2-2.1,0.3-3.4,0.6
			c-1-5.3-1.4-7.9-2.3-13.2c-2,0.3-2.9,0.4-4.9,0.7c-0.2-1.1-0.2-1.6-0.4-2.7c5.2-0.7,7.8-1.1,13-2.1c0.2,1.1,0.3,1.6,0.5,2.7
			c-1.9,0.3-2.9,0.5-4.8,0.8C383.5,443.6,384,446.2,385,451.5z M403.9,446.3c-0.4,0.6-0.9,1.2-1.7,1.7c-0.7,0.5-1.8,0.9-3.1,1.2
			c-1.6,0.3-2.9,0.4-3.8,0.2c-0.9-0.2-1.7-0.5-2.3-1c-0.6-0.5-1-1-1.3-1.6c-0.4-0.9-0.8-2.2-1.1-3.9c-0.7-3.4-1-5-1.7-8.4
			c1.3-0.2,2-0.4,3.3-0.6c0.7,3.4,1,5.1,1.8,8.5c0.3,1.4,0.5,2.2,0.7,2.6c0.3,0.6,0.7,1.1,1.4,1.3c0.6,0.3,1.4,0.3,2.4,0.1
			c1-0.2,1.6-0.5,2-1c0.4-0.5,0.6-1,0.6-1.5c0-0.6-0.2-1.5-0.5-2.7c-0.8-3.5-1.2-5.2-2-8.7c1.3-0.3,1.9-0.4,3.2-0.7
			c0.8,3.3,1.1,4.9,1.9,8.2c0.5,1.9,0.7,3.2,0.7,4C404.5,444.9,404.3,445.6,403.9,446.3z M420.6,442.2c-0.3,0.7-0.9,1.2-1.6,1.8
			c-0.7,0.5-1.7,1-3,1.3c-1.6,0.4-2.8,0.5-3.7,0.4c-0.9-0.1-1.7-0.4-2.3-0.9c-0.6-0.4-1.1-0.9-1.4-1.5c-0.4-0.8-0.9-2.1-1.3-3.9
			c-0.8-3.3-1.2-5-2-8.3c1.3-0.3,1.9-0.5,3.2-0.8c0.8,3.4,1.3,5.1,2.2,8.4c0.3,1.3,0.6,2.2,0.8,2.6c0.3,0.6,0.8,1,1.4,1.3
			c0.6,0.3,1.4,0.3,2.3,0c0.9-0.2,1.6-0.6,2-1.1c0.4-0.5,0.5-1,0.5-1.6c-0.1-0.6-0.3-1.4-0.6-2.7c-1-3.4-1.4-5.1-2.4-8.6
			c1.3-0.3,1.9-0.5,3.2-0.9c0.9,3.2,1.4,4.9,2.3,8.1c0.5,1.9,0.9,3.2,0.9,4C421,440.8,420.9,441.5,420.6,442.2z M439.7,437.6
			c-1.6-5.5-2.3-8.4-3.8-13.3c0.2,5.6,0.3,8.8,0.5,14.6c-1.3,0.5-2,0.7-3.4,1.2c-3-4.7-4.5-7-7.4-11.3c1.5,4.8,2.3,7.4,3.8,12.5
			c-1.4,0.4-2,0.6-3.4,1c-1.9-6.3-2.9-9.5-4.8-15.5c2.1-0.7,3.2-1.1,5.4-2c2.6,3.6,4,5.4,6.6,9.5c-0.1-5-0.1-7.6-0.2-12.2
			c2.1-1,3-1.5,4.7-2.5c1.9,5.8,2.8,9.7,4.9,16.9C441.5,436.9,441,437.1,439.7,437.6z"/>
	</g>
	<g>
		<path class="st0" d="M239.2,460.1c0-0.2,0-0.4,0-0.6c-4.3-0.5-24.2-2.8-46.6-9c-6.4-1.8-12.6-3.7-18.4-5.8c0,0-3.2-1.1-6-4
			c-4.1-4.4-5.2-10.3-3.2-17.7c4.8-17.1,7.1-19.9,7.2-20.1c0-0.1,3.9-5.2,19.6-1l0.3-1c-16.3-4.4-20.5,1.2-20.6,1.4
			c-0.1,0.1-2.5,2.8-7.4,20.4c-2.7,9.7,0.4,15.5,3.4,18.7c3,3.1,6.3,4.2,6.4,4.2c5.8,2.1,12,4.1,18.5,5.9c22.5,6.2,42.6,8.6,46.8,9
			C239.2,460.4,239.2,460.3,239.2,460.1z"/>
	</g>
	<g>
		<path class="st0" d="M447.9,422.8c-4.9-17.6-7.3-20.3-7.4-20.4c-0.2-0.2-4.3-5.8-20.7-1.4l0.3,1c15.5-4.2,19.5,1,19.6,1.1
			c0.1,0.1,2.4,2.9,7.2,20c2.1,7.4,1,13.4-3.2,17.7c-2.8,2.9-6,4-6,4c-5.8,2.1-11.9,4.1-18.4,5.8c-22.3,6.1-42.2,8.5-46.6,9
			c0,0.2,0,0.4,0,0.6l0,0.4c4.2-0.4,24.3-2.8,46.8-9c6.5-1.8,12.7-3.8,18.4-5.9c0.1,0,3.5-1.1,6.4-4.2
			C447.5,438.3,450.6,432.4,447.9,422.8z"/>
	</g>
	<g>
		<path class="st0" d="M250.6,438.5l4.1-1.1l4.9-2.7c0,0,5.4-2.6-5.9-4.3l0-0.5c-1.6-0.2-3.6,0-5.9-0.2c-13.8-1.2-32.9-4.4-46.7-7.3
			c-4.9-1-9.3-1.7-12.3-2.7c-11.5-3.8-21.3-21.2,3.2-18.4c-0.3-0.1,0.5-0.4,0.2-0.5c-15.4-3.9-20.3,1.7-20.3,1.7s-2.4,2.5-7.3,20.2
			c-2.6,9.2,0.1,14.9,3.3,18.2c2.9,3.1,6.2,4.1,6.2,4.1c6.2,2.2,12.4,4.2,18.4,5.8c22.6,6.2,42.4,8.5,46.7,9
			C239.5,451.8,239.8,441.4,250.6,438.5z M176.4,438.6c-0.9-0.4-1.4-0.6-2.3-1c0.1-1.8,0.1-2.7,0.2-4.5c-1.6-0.8-2.4-1.3-3.9-2.1
			c-0.7,1.5-1.1,2.3-1.9,3.9c-0.8-0.4-1.2-0.6-2-1c3.5-7.2,5.1-10.6,8.2-15.4c0.8,0.5,1.2,0.8,2.1,1.3
			C176.7,426.6,176.6,430.9,176.4,438.6z M188.5,434.8c-0.3,1.3-0.8,2.3-1.2,3.2c-0.6,1.1-1.2,1.9-1.9,2.4c-0.5,0.4-1.1,0.7-1.9,0.7
			c-0.5,0.1-1.2-0.1-2-0.4c-1.6-0.6-2.4-1-4-1.7c1.8-6.9,2.7-10.4,4.4-16.2c1.5,0.9,2.3,1.3,3.9,2c0.9,0.4,1.5,0.8,1.9,1.2
			c0.5,0.5,0.9,1.2,1.2,2c0.3,0.8,0.4,1.8,0.3,2.8C189.2,432.1,188.9,433.3,188.5,434.8z M191,443.7c0.1-6.6,0.2-9.9,0.4-16.5
			c0.9,0.3,1.3,0.4,2.2,0.6c-0.1,4.9-0.2,7.3-0.3,12.2c2.2-4.4,3.3-6.6,5.4-10.9c0.9,0.2,1.3,0.3,2.2,0.5c-2.9,5.9-4.5,8.9-7.6,14.8
			C192.4,444.1,191.9,444,191,443.7z M207.4,440.1c-2.1-0.4-3.2-0.7-5.3-1.1c-0.4,1.7-0.6,2.6-1,4.3c2.4,0.5,3.6,0.8,6,1.3
			c-0.2,1.1-0.4,1.6-0.6,2.6c-3.3-0.7-4.9-1-8.2-1.8c1.6-6.3,2.3-9.4,3.8-15.6c3.1,0.7,4.6,1,7.7,1.6c-0.2,1.1-0.3,1.6-0.6,2.7
			c-2.3-0.5-3.4-0.7-5.6-1.2c-0.3,1.4-0.5,2.1-0.8,3.5c2.1,0.5,3.2,0.7,5.3,1.1C207.7,438.6,207.6,439.1,207.4,440.1z M214.7,448.8
			c-0.9-4.4-1.3-6.7-2.2-11.1c-0.9,4.1-1.3,6.2-2.2,10.3c-0.8-0.2-1.2-0.2-2-0.4c1.4-6.3,2.1-9.4,3.4-15.7c0.8,0.2,1.2,0.2,2.1,0.4
			c0.9,4.5,1.3,6.8,2.2,11.3c0.9-4.2,1.3-6.3,2.1-10.5c0.8,0.1,1.2,0.2,2,0.4c-1.2,6.3-1.8,9.5-3.1,15.8
			C216,449,215.6,448.9,214.7,448.8z M219.2,449.6c1.3-6.3,1.9-9.5,3-15.8c0.9,0.1,1.3,0.2,2.1,0.4c-1.1,6.3-1.7,9.5-2.9,15.8
			C220.5,449.8,220.1,449.7,219.2,449.6z M231,451.4c-0.1-1.5-0.2-2.2-0.3-3.7c-1.8-0.3-2.6-0.4-4.4-0.7c-0.6,1.4-0.9,2.1-1.6,3.5
			c-0.9-0.1-1.4-0.2-2.4-0.4c2.9-6.1,4.3-9.1,7-15.2c0.9,0.1,1.4,0.2,2.3,0.3c0.7,6.6,1,9.9,1.8,16.5
			C232.5,451.6,232,451.6,231,451.4z M234.8,438.4c0.2-1.1,0.2-1.6,0.4-2.7c3.4,0.5,5.1,0.7,8.5,1.1c-0.1,1.1-0.2,1.6-0.4,2.7
			c-1.3-0.1-1.9-0.2-3.2-0.4c-0.7,5.3-1.1,7.9-2,13.2c-0.9-0.1-1.3-0.2-2.2-0.3c0.9-5.3,1.3-7.9,2-13.2
			C236.7,438.7,236.1,438.6,234.8,438.4z"/>
	</g>
	<g>
		<path class="st0" d="M371.9,465.3c-0.1-1.7-0.1-3.4-0.2-5.1c-0.3-9.2-0.9-18-10.6-20.6c8.7,5-3.2,7.2-18.2,8.1
			c-16.6,1-37,0.5-37,0.5s-20.4,0.6-37-0.5c-14.9-0.9-26.8-3.1-18.2-8.1c-9.7,2.6-10.3,11.4-10.6,20.6c-0.1,1.7-0.1,3.4-0.2,5.1
			c-0.5,10.9,13.7,13.1,21.2,14.1c7.5,1,44.7,1.3,44.7,1.3s37.2-0.3,44.7-1.3C358.2,478.4,372.4,476.2,371.9,465.3z M258.8,472.3
			c-1-1.8-1.5-2.7-2.5-4.5c-0.9-1.6-1.5-2.6-1.8-3c-0.3-0.4-0.7-0.7-1.1-0.9c-0.4-0.2-1.1-0.3-2-0.4c-0.3,0-0.5,0-0.8-0.1
			c-0.3,3.2-0.5,4.8-0.8,8c-1.6-0.2-2.4-0.3-4-0.4c0.9-7.7,1.3-11.6,2.1-19.3c3.3,0.4,4.9,0.5,8.2,0.8c2.1,0.2,3.6,0.5,4.5,0.9
			c0.9,0.4,1.6,1.1,2.1,2c0.5,0.9,0.7,2,0.6,3.1c-0.1,1.4-0.6,2.6-1.6,3.5c-0.9,0.9-2.3,1.4-4.1,1.5c0.8,0.6,1.5,1.2,2,1.8
			c0.5,0.6,1.2,1.7,2,3.3c0.9,1.6,1.3,2.4,2.1,4C261.7,472.5,260.7,472.5,258.8,472.3z M281.5,457.6c-4.2-0.2-6.3-0.3-10.5-0.6
			c-0.1,1.7-0.2,2.6-0.3,4.3c3.9,0.3,5.9,0.4,9.9,0.6c-0.1,1.3-0.1,2-0.2,3.3c-4-0.2-6-0.3-9.9-0.6c-0.1,2.1-0.2,3.2-0.3,5.3
			c4.5,0.3,6.7,0.4,11.2,0.6c-0.1,1.3-0.1,2-0.1,3.3c-6.1-0.3-9.2-0.5-15.3-0.9c0.6-7.7,0.9-11.6,1.4-19.3c5.7,0.4,8.6,0.6,14.4,0.9
			C281.6,455.7,281.6,456.3,281.5,457.6z M302.7,471.6c-0.9,0.8-2.1,1.5-3.7,2.1c-1.6,0.6-3.3,0.9-4.9,0.8c-2.1,0-3.9-0.5-5.5-1.4
			c-1.5-0.9-2.7-2.2-3.4-3.8c-0.7-1.6-1-3.3-1-5.2c0.1-2,0.6-3.8,1.5-5.3c0.9-1.5,2.2-2.7,3.9-3.5c1.3-0.6,2.8-0.9,4.7-0.8
			c2.4,0.1,4.3,0.6,5.6,1.6c1.3,1,2.2,2.4,2.6,4.2c-1.6,0.3-2.4,0.4-3.9,0.7c-0.3-1-0.8-1.7-1.5-2.3c-0.8-0.6-1.7-0.9-2.8-0.9
			c-1.7,0-3.1,0.5-4.2,1.5c-1.1,1.1-1.6,2.6-1.7,4.8c-0.1,2.3,0.4,4,1.4,5.2c1,1.2,2.4,1.8,4.1,1.8c0.8,0,1.7-0.1,2.6-0.4
			c0.9-0.3,1.6-0.7,2.2-1.1c0-1,0-1.5,0-2.5c-1.8,0-2.8,0-4.6-0.1c0-1.3,0-2,0.1-3.3c3.4,0.1,5.2,0.1,8.6,0.1
			C302.8,467,302.7,468.5,302.7,471.6z M318.4,474.2c-3.4-5-5-7.5-8.2-12.5c0,5.1,0.1,7.6,0.1,12.6c-1.5,0-2.3,0-3.8,0
			c0-7.8,0-11.6,0-19.4c1.5,0,2.3,0,3.8,0c3.2,5.2,4.9,7.7,8.3,12.8c-0.1-5.2-0.2-7.8-0.3-12.9c1.5,0,2.2-0.1,3.6-0.1
			c0.2,7.8,0.3,11.6,0.6,19.4C320.8,474.1,320,474.1,318.4,474.2z M342.2,468.8c-0.2,1-0.5,1.8-1,2.5c-0.5,0.7-1.3,1.3-2.3,1.7
			c-1,0.4-2.2,0.7-3.8,0.8c-1.9,0.1-3.4,0-4.4-0.4c-1-0.4-1.8-0.9-2.4-1.6c-0.6-0.7-1-1.4-1.2-2.1c-0.3-1.1-0.5-2.7-0.6-4.9
			c-0.2-4.1-0.2-6.2-0.4-10.3c1.6-0.1,2.4-0.1,3.9-0.2c0.2,4.2,0.3,6.3,0.5,10.5c0.1,1.7,0.2,2.7,0.3,3.2c0.2,0.8,0.6,1.4,1.3,1.9
			c0.7,0.4,1.6,0.6,2.7,0.6c1.1-0.1,2-0.3,2.6-0.8c0.6-0.5,0.9-1.1,0.9-1.7c0.1-0.7,0.1-1.8,0-3.3c-0.3-4.3-0.4-6.4-0.6-10.7
			c1.6-0.1,2.3-0.1,3.9-0.2c0.3,4.1,0.4,6.1,0.7,10.2C342.3,466.2,342.3,467.9,342.2,468.8z M362.6,471.4c-0.6-6.1-0.9-9.1-1.6-15.2
			c-0.9,6.2-1.4,9.3-2.4,15.6c-1.6,0.1-2.3,0.2-3.9,0.4c-2.1-5.9-3.2-8.9-5.2-14.9c0.5,6.1,0.7,9.1,1.2,15.2
			c-1.5,0.1-2.3,0.2-3.8,0.3c-0.6-7.7-0.9-11.6-1.4-19.3c2.3-0.2,3.5-0.3,5.9-0.5c1.9,5.2,2.8,7.7,4.7,12.9
			c0.9-5.4,1.4-8.1,2.3-13.5c2.3-0.2,3.5-0.4,5.9-0.6c0.8,7.7,1.3,11.6,2.1,19.3C364.9,471.2,364.1,471.2,362.6,471.4z"/>
	</g>
	<g>
		<path class="st0" d="M259.1,458.6c0.1-0.6-0.1-1.2-0.4-1.6c-0.3-0.4-0.8-0.7-1.4-0.9c-0.3-0.1-1.3-0.2-2.9-0.3
			c-1.2-0.1-1.8-0.2-3.1-0.3c-0.2,2-0.3,2.9-0.5,4.9c1.2,0.1,1.8,0.2,2.9,0.3c1.9,0.2,3.1,0.2,3.6,0.1c0.5-0.1,0.9-0.4,1.2-0.7
			C258.8,459.6,259,459.1,259.1,458.6z"/>
	</g>
	<g>
		<path class="st0" d="M203.3,207.5l0.7-0.6c0.4,0,1.1,0.1,2.1,0.1c7,0,25.4-2.9,46.2-28.7c-0.3-0.1-0.7-0.2-1-0.4
			c-20.4,25.2-38.3,28-45.2,28c-1.4,0-2.2-0.1-2.2-0.1l-0.4,0.1l-1.2,1C202.7,207.1,203,207.2,203.3,207.5z"/>
	</g>
	<g>
		<path class="st0" d="M405.8,207c1.1,0,1.8-0.1,2.1-0.1l1.9,1.6l0.2-0.2c0.1-0.2,0.3-0.4,0.5-0.6l-2.1-1.8l-0.4-0.1
			c0,0-0.8,0.1-2.2,0.1c-7,0-25.2-2.9-46-29c-0.4,0-0.9,0-1.3,0C379.8,204.1,398.7,207,405.8,207z"/>
	</g>
	<g>
		<path class="st0" d="M175.8,204.4c-15.6,5-18,19.2-18,19.2s2,17.9-12.2,25.5l7.7-1.5l-2.6,7.9c0,0,14.8-6.1,14.8-28.3
			c2.8-8.6,7.6-13.2,12.8-15.5C176.7,210.7,174.8,208.2,175.8,204.4z"/>
	</g>
	<g>
		<path class="st0" d="M409.4,213.4c-2.8-3-2.6-5.5-2.2-6.8c-32.5,11.1-100.9-29-100.9-29s-68.9,40.1-101.4,29
			c0.4,1.3,0.6,3.7-2.1,6.6c4.2,2.8,29.2,15,103.5-23.8C379.5,227.3,404.5,216.5,409.4,213.4z"/>
	</g>
	<g>
		<path class="st0" d="M466.4,249.1c-14.3-7.7-12.2-25.5-12.2-25.5s-2.4-14.2-18-19.2c1,3.8-0.8,6.2-2.3,7.2
			c5.2,2.2,9.9,6.8,12.6,15.6c0,22.2,14.8,28.3,14.8,28.3l-2.6-7.9L466.4,249.1z"/>
	</g>
	<g>
		<path class="st0" d="M440.7,349c-1.2-1-2.4-2-3.5-3.1c-1.8,2.5-3,4.2-5.1,7c-1.8-3.6-2.7-5.4-4.5-9c1.5-2.1,2.6-3.5,3.7-5.1
			c-3.5-5.4-6.2-11.8-7.8-19c-0.8,1.2-1.6,2.5-2.7,4.2c-2-3.5-3.1-5.3-5.2-8.8c2.3-3.5,3.4-5.2,5.7-8.7c0.2,0.3,0.3,0.5,0.4,0.7l0,0
			c-0.4-6.1-0.2-11.7,0.1-16.1c-4,2.2-6.6,4-6.7,4.1l-1.5,1l-0.1-1.8l-3.8-79.7c-2.4,1.4-8,3.8-18.5,3.8c-14.5,0-41-4.8-84.9-27.7
			l0,0l0,0l0,0l-0.1,0.1c-43.8,22.8-70.3,27.6-84.8,27.6c-10.5,0-16.1-2.4-18.5-3.8l-3.8,79.7l-0.1,1.8l-1.5-1
			c-0.1,0-2.7-1.8-6.7-4.1c0.4,4.4,0.5,10.1,0.1,16.1l0,0c0.1-0.2,0.3-0.5,0.4-0.7c2.2,3.5,3.4,5.2,5.7,8.7
			c-2.1,3.5-3.2,5.3-5.2,8.8c-1.1-1.7-1.9-2.9-2.7-4.2c-1.7,7.3-4.3,13.7-7.8,19c1.1,1.6,2.2,3.1,3.7,5.1c-1.9,3.6-2.8,5.4-4.5,9
			c-2.1-2.9-3.3-4.5-5.1-7c-1.1,1.1-2.3,2.1-3.5,3.1l-0.5,0.4c0.8,7.6,5.3,30.1,29.9,41.2c29.8,13.5,51.5,40.3,104.8,40.3l0.3,0
			l0.2,0c53.3,0,75-26.8,104.8-40.3c24.6-11.1,29.1-33.7,29.9-41.2L440.7,349z M413,289.4c-2.1,3.5-3.1,5.3-5.3,8.7
			c-2.2-3.5-3.4-5.2-5.7-8.6c2.1-3.5,3.2-5.2,5.2-8.7C409.6,284.2,410.7,285.9,413,289.4z M403.1,226.9c2.5,3.4,3.8,5.1,6.3,8.5
			c-1.6,3.6-2.4,5.4-4.2,8.9c-2.5-3.4-3.8-5.1-6.3-8.5C400.7,232.3,401.5,230.5,403.1,226.9z M209.4,226.9c1.6,3.6,2.4,5.4,4.1,8.9
			c-2.5,3.4-3.8,5.1-6.3,8.5c-1.7-3.6-2.6-5.3-4.2-8.9C205.6,232,206.8,230.3,209.4,226.9z M205.2,280.7c2.1,3.5,3.1,5.2,5.2,8.7
			c-2.3,3.4-3.4,5.2-5.7,8.6c-2.1-3.5-3.2-5.2-5.3-8.7C201.7,285.9,202.9,284.2,205.2,280.7z M197.1,378.1c-2.6-3.4-3.9-5.1-6.5-8.5
			c1.6-3.6,2.4-5.4,4-9c2.6,3.4,3.9,5.1,6.4,8.5C199.5,372.7,198.7,374.5,197.1,378.1z M206.9,351.9c-2.4-3.4-3.6-5.1-6.1-8.5
			c1.8-3.5,2.8-5.3,4.7-8.8c2.4,3.4,3.6,5.1,6,8.5C209.7,346.6,208.7,348.4,206.9,351.9z M219.7,395.5c-2.4-3.4-3.6-5.1-6.1-8.5
			c1.8-3.5,2.8-5.3,4.7-8.8c2.4,3.4,3.6,5.1,6,8.5C222.5,390.2,221.6,391.9,219.7,395.5z M392.7,395.5c-1.8-3.5-2.8-5.3-4.7-8.8
			c2.4-3.4,3.6-5.1,6-8.5c1.9,3.5,2.9,5.3,4.7,8.8C396.4,390.4,395.2,392.1,392.7,395.5z M388.8,325.6c0.9,15.5,16.3,88-82.8,98.7
			c-99.2-10.7-83.8-83.1-82.8-98.7c0.9-15.5-10.7-38.5-10.7-38.5c20.5-30.1,9.2-57.8,9.2-57.8c52.2-9.7,84.4-29.9,84.4-29.9
			s32.2,20.2,84.4,29.9c0,0-11.4,27.7,9.2,57.8C399.6,287.1,387.9,310.1,388.8,325.6z M405.6,351.9c-1.8-3.5-2.8-5.3-4.7-8.8
			c2.4-3.4,3.6-5.1,6-8.5c1.9,3.5,2.9,5.3,4.7,8.8C409.2,346.8,408,348.5,405.6,351.9z M415.3,378.1c-1.5-3.6-2.3-5.4-4-9
			c2.6-3.4,3.9-5.1,6.4-8.5c1.7,3.6,2.5,5.4,4,9C419.2,373,417.9,374.7,415.3,378.1z"/>
	</g>
	<g>
		<path class="st0" d="M178.7,210.7L155.5,280l-1.1,4.6c0.3-0.2,2.4-1.8,2.7-2l-0.6-2.5l22.9-68.7
			C180.1,209.2,178.2,210,178.7,210.7z"/>
	</g>
	<g>
		<path class="st0" d="M158.7,304.3l9.5,31.5c0.2-0.4,0.4-0.9,0.7-1.3l-9.2-29.8C159.5,304.6,159.1,304.4,158.7,304.3z"/>
	</g>
	<g>
		<path class="st0" d="M167,282.7c-3.5,0-6.3,1-8.1,3c-2.5,2.8-3.6,7.5-3,14l0.2,3c4.4,6.8,17.8,14.8,24,21.7
			c7.7,8.5-8.8,23.7-8.8,23.7c16.6-12.6,20-36.7,18.4-58C183.2,286.7,174.2,282.7,167,282.7z M166.7,300.3c-2.3-2.4-3.4-3.9-5.6-7.4
			c2-3.4,3-4.9,5.1-7.3c2.2,3.5,3.3,5,5.6,7.5C169.7,295.5,168.7,296.9,166.7,300.3z M180.5,320.2c-1.5-2.4-2.2-3.9-4.3-7.4
			c1.7-3.5,2.3-4.9,3.5-7.3c3,3.4,4,5,6.1,7.5C184,315.4,183.1,316.9,180.5,320.2z"/>
	</g>
	<g>
		<path class="st0" d="M179.3,325.2c-3.2,3.5-11,8.6-11,12.6c0,3.3,1.7,7.5,2.5,9.4C172.7,345.3,185.6,332.3,179.3,325.2z"/>
	</g>
	<g>
		<path class="st0" d="M201.9,213.9L198,294c0,0-46.2-31.4-43.2,5.8c0,0-3.7-8.6,1.2-19.8c4.9-11.2,26-6.8,32-3.4
			c0,0,6.5-62.8,6.7-64.8C198.3,212.2,201.9,213.9,201.9,213.9z"/>
	</g>
	<g>
		<path class="st0" d="M433.8,210.7l23.2,69.4l1.1,4.6c-0.3-0.2-2.4-1.8-2.7-2l0.6-2.5l-22.9-68.7
			C432.3,209.2,434.2,210,433.8,210.7z"/>
	</g>
	<g>
		<path class="st0" d="M453.7,304.3l-9.5,31.5c-0.2-0.4-0.5-0.9-0.7-1.3l9.2-29.8C453,304.6,453.4,304.4,453.7,304.3z"/>
	</g>
	<g>
		<path class="st0" d="M422.9,290.2c-1.6,21.3,1.8,45.4,18.4,58c0,0-16.5-15.2-8.8-23.7c6.2-6.9,19.6-14.9,24-21.7l0.2-3
			c0.5-6.6-0.5-11.3-3.1-14c-1.8-2-4.6-3-8.1-3C438.3,282.7,429.3,286.7,422.9,290.2z M440.6,293c2.3-2.5,3.4-4,5.6-7.5
			c2.1,2.4,3.1,3.9,5.1,7.3c-2.2,3.5-3.3,5-5.6,7.4C443.7,296.9,442.7,295.5,440.6,293z M426.6,313c2.1-2.5,3.1-4,6.1-7.5
			c1.2,2.4,1.8,3.9,3.5,7.3c-2.1,3.5-2.8,5-4.3,7.4C429.4,316.9,428.5,315.4,426.6,313z"/>
	</g>
	<g>
		<path class="st0" d="M433.1,325.2c3.2,3.5,11,8.6,11,12.6c0,3.3-1.7,7.5-2.5,9.4C439.7,345.3,426.8,332.3,433.1,325.2z"/>
	</g>
	<g>
		<path class="st0" d="M410.6,213.9l3.8,80.1c0,0,46.2-31.4,43.2,5.8c0,0,3.7-8.6-1.2-19.8c-4.9-11.2-26-6.8-32-3.4
			c0,0-6.5-62.8-6.8-64.8C414.1,212.2,410.6,213.9,410.6,213.9z"/>
	</g>
	<g>
		<path class="st0" d="M203.8,206.9l-10-1.2l-6.6-0.5l-10.3-0.7l-0.5-0.5c0,0-0.1-4.2-4.3-9.3c-1.6-1.9-2.2-4-1.7-6.3
			c0.6-2.9,2.7-5.2,3.5-5.6l0.1-0.1c4.1-2.4,7.9-2,10.3,1c1.8-4.1,6.3-4.6,8.3-4.6c0.5,0,0.8,0,0.8,0c0.2,0,4.9,0.5,6.9,4
			c1-0.4,2.1-0.6,3.3-0.6c2.9,0,5.1,1.3,5.7,1.7c0.9,0.6,3.5,3.2,4,6.4c0.3,2.1-0.4,4.2-2.1,6c-4.9,5.4-6.9,10-7,10L203.8,206.9z
			 M195.4,204.8l8.1,1c0.6-1.2,2.7-5.2,7-10c1.5-1.6,2.1-3.4,1.8-5.2c-0.4-3.1-3.1-5.4-3.5-5.7c-0.6-0.4-2.6-1.5-5.2-1.5
			c-1.1,0-2.1,0.2-3.1,0.6L195.4,204.8z M188.1,204.2l6.3,0.5l5.2-20.9c-1.8-3.2-6.2-3.6-6.3-3.6c0,0-0.3,0-0.7,0
			c-1.8,0-6.2,0.5-7.6,4.6L188.1,204.2z M177.4,203.4l9.6,0.7l-3.1-19.3c-2.2-3.1-5.5-3.6-9.5-1.3l-0.1,0.1c-0.4,0.2-2.4,2.2-3,4.9
			c-0.4,1.9,0.1,3.8,1.5,5.5C176.6,198.4,177.3,202.2,177.4,203.4z"/>
	</g>
	<g>
		<path class="st0" d="M179.1,211c0,0-3.9-2-2.1-7.1c0,0,15.6-5.4,26.6,2.3c0,0,1.9,2.7-1.7,6.4C201.9,212.7,190.3,207.5,179.1,211z
			"/>
	</g>
	<g>
		<path class="st0" d="M408.2,206.9l-0.5-0.3c0,0-2.1-4.6-7-10c-1.7-1.8-2.4-3.9-2.1-6c0.4-3.2,3.1-5.8,4-6.4
			c0.6-0.4,2.8-1.7,5.7-1.7c1.1,0,2.2,0.2,3.3,0.6c2.1-3.5,6.7-3.9,7-4c0,0,0.3,0,0.8,0c1.9,0,6.4,0.5,8.3,4.6c2.5-3,6.2-3.3,10.3-1
			l0.1,0.1c0.8,0.4,2.9,2.7,3.5,5.6c0.4,2.3-0.2,4.4-1.7,6.3c-4.2,5.1-4.3,9.3-4.3,9.3l-0.5,0.5l-10.7,0.7L408.2,206.9z
			 M408.4,183.5c-2.6,0-4.6,1.1-5.2,1.5c-0.5,0.3-3.1,2.6-3.5,5.7c-0.3,1.8,0.4,3.6,1.8,5.2c4.3,4.7,6.4,8.8,7,10l8.2-0.9l-5.2-20.9
			C410.5,183.7,409.4,183.5,408.4,183.5z M412.4,183.7l5.3,21.1l6.2-0.6l3.2-19.5c-1.4-4.2-5.8-4.6-7.6-4.6c-0.4,0-0.7,0-0.7,0
			C418.6,180.1,414.2,180.5,412.4,183.7z M428,184.8l-3.1,19.3l9.6-0.7c0.1-1.3,0.9-5,4.5-9.5c1.4-1.7,1.9-3.5,1.5-5.5
			c-0.5-2.7-2.6-4.7-3-4.9l-0.1-0.1C433.6,181.3,430.2,181.7,428,184.8z"/>
	</g>
	<g>
		<path class="st0" d="M432.9,211c0,0,3.9-2,2.1-7.1c0,0-15.6-5.4-26.6,2.3c0,0-1.9,2.7,1.7,6.4C410.1,212.7,421.7,207.5,432.9,211z
			"/>
	</g>
	<g>
		<path class="st0" d="M306,112.7c1.2-1.8,3.7-3.2,6.3-4.2c-1.2-2.6-6.3-9.5-6.3-9.5s-5.3,6.8-6.3,9.5
			C302.2,109.5,304.8,110.9,306,112.7z"/>
	</g>
	<g>
		<path class="st0" d="M341.7,117.6c1.3-1.6,3.7-2.7,6.1-3.5c-0.9-2.5-5.2-9.2-5.2-9.2s-5.3,5.9-6.5,8.4
			C338.4,114.4,340.7,115.8,341.7,117.6z"/>
	</g>
	<g>
		<path class="st0" d="M270.3,117.7c1.1-1.8,3.5-3.3,5.9-4.4c-1.3-2.5-6.9-8.4-6.9-8.4s-4.5,6.7-5.5,9.2
			C266.4,114.9,269,116.1,270.3,117.7z"/>
	</g>
	<g>
		<path class="st0" d="M240.2,118.6c-6.1,7.4-9.5,7.4-9.5,7.4l5.6,11.1c0,0,1.3-1.1,2.5,0.1C238,128,240.2,118.6,240.2,118.6z"/>
	</g>
	<g>
		<path class="st0" d="M230.7,125.2c0,0,1.6-0.1,4.5-2.5c-2.7-6.6-8.7-9.2-8.7-9.2c-0.1,4.4,2.7,9.8,3.8,11.7L230.7,125.2z"/>
	</g>
	<g>
		<path class="st0" d="M361.5,173.7c-27.9-1.9-55.5-2-55.5-2s-27.6,0.1-55.5,2c-5.2,2.8-0.2,5.8-0.2,5.8c27.9-1.9,55.8-2,55.8-2
			s27.9,0,55.8,2C361.8,179.6,366.7,176.6,361.5,173.7z"/>
	</g>
	<g>
		<path class="st0" d="M245.7,153.2l0.2-0.1l0.2,0c29.8-1.9,59.7-2,60-2h0h0c0.3,0,30.2,0.1,60,2l0.2,0l0.2,0.1
			c0.9,0.4,1.5,0.9,2,1.4l3.4-9.8c0,0-10.4,2.8-15.5-0.8c0,0-9.9,3.8-16.5-0.9c0,0-8.5,4-16.8-0.7c0,0-12.2,4-17-1.6
			c-4.8,5.7-17,1.6-17,1.6c-8.3,4.7-16.8,0.7-16.8,0.7c-6.6,4.7-16.5,0.9-16.5,0.9c-5.1,3.6-15.5,0.8-15.5,0.8l3.4,9.8
			C244.1,154.1,244.8,153.7,245.7,153.2z"/>
	</g>
	<g>
		<path class="st0" d="M365.9,154.1c-30.1-1.9-59.9-2-59.9-2s-29.8,0.1-59.9,2c-5.6,2.8-0.3,5.8-0.3,5.8c30.1-1.9,60.1-2,60.1-2
			s30.1,0,60.1,2C366.1,159.9,371.5,156.9,365.9,154.1z"/>
	</g>
	<g>
		<path class="st0" d="M366.1,161c-29.7-1.9-59.8-2-60.1-2c-0.3,0-30.4,0.1-60.1,2l-0.1,0l4.2,11.9l0.2-0.1l0.2,0
			c27.6-1.9,55.3-2,55.6-2h0h0c0.3,0,28,0.1,55.6,2l0.2,0l0.2,0.1L366.1,161L366.1,161z M257,169.2c-1.8,0.1-3.4-1.3-3.5-3.2
			c-0.1-1.8,1.3-3.4,3.2-3.5c1.8-0.1,3.4,1.3,3.5,3.2C260.3,167.6,258.8,169.2,257,169.2z M273.3,168.6c-1.8,0.1-3.4-1.4-3.4-3.2
			c-0.1-1.8,1.4-3.4,3.2-3.4c1.8-0.1,3.4,1.4,3.4,3.2C276.6,167.1,275.2,168.6,273.3,168.6z M289.7,168.3c-1.8,0-3.3-1.4-3.4-3.3
			c0-1.8,1.4-3.3,3.3-3.4c1.8,0,3.3,1.4,3.4,3.3C293,166.8,291.5,168.3,289.7,168.3z M306,168.2c-1.8,0-3.3-1.5-3.3-3.3
			c0-1.8,1.5-3.3,3.3-3.3c1.8,0,3.3,1.5,3.3,3.3C309.3,166.7,307.8,168.2,306,168.2z M322.3,168.3c-1.8,0-3.3-1.5-3.3-3.3
			c0-1.8,1.5-3.3,3.4-3.3c1.8,0,3.3,1.5,3.3,3.4C325.7,166.9,324.2,168.3,322.3,168.3z M338.7,168.6c-1.8-0.1-3.3-1.6-3.2-3.4
			c0-1.8,1.6-3.3,3.4-3.2c1.8,0.1,3.3,1.6,3.2,3.4C342,167.3,340.5,168.7,338.7,168.6z M355,169.2c-1.8-0.1-3.2-1.6-3.2-3.4
			c0.1-1.8,1.6-3.2,3.5-3.2c1.8,0.1,3.3,1.6,3.2,3.5C358.4,167.9,356.8,169.3,355,169.2z"/>
	</g>
	<g>
		<path class="st0" d="M373.3,136.9L373.3,136.9c0.9-0.3,1.7-0.1,2.4,0.4l5.7-11.3c0,0-3.4,0-9.5-7.3
			C371.8,118.8,373.9,127.9,373.3,136.9z"/>
	</g>
	<g>
		<path class="st0" d="M381.3,125.3h0.5c1.1-1.9,3.9-7.2,3.8-11.6c0,0-6,2.6-8.7,9.1C379.8,125.2,381.3,125.3,381.3,125.3z"/>
	</g>
	<g>
		<path class="st0" d="M306,115.1c0-5.3-13.8-7.9-13.8-7.9c7.9,7.1,10.1,22.5,10.8,30.2l0.2,0c1.5,0,2.8,1.2,2.8,2.8
			c0,1.5-1.2,2.7-2.7,2.8v1.3h2.7h2.8v-1.3c-1.5,0-2.7-1.2-2.7-2.8c0-1.5,1.2-2.8,2.8-2.8l0.2,0c0.6-7.6,2.9-23,10.8-30.2
			C319.8,107.2,306,109.8,306,115.1z M306,137.9c-1.5,0-2.8-1.2-2.8-2.8c0-1.5,1.2-2.8,2.8-2.8c1.5,0,2.8,1.2,2.8,2.8
			C308.8,136.6,307.5,137.9,306,137.9z"/>
	</g>
	<g>
		<path class="st0" d="M341.6,119.9c0.4-5-12.3-8.3-12.3-8.3c6.7,6.9,7.9,20.8,8,28.1c0.2,0,0.4,0,0.5,0c1.3,0.1,2.3,1.3,2.2,2.6
			c-0.1,1.2-1,2.2-2.1,2.3l1.8,0.1l2.5,0.2c-1.3-0.1-2.2-1.3-2.1-2.6c0.1-1.4,1.2-2.4,2.5-2.3c0.1,0,0.2,0,0.3,0.1
			c1.2-7.3,4.4-20.7,11.9-26.6C354.9,113.4,341.9,114.9,341.6,119.9z M340.2,140.5c-1.3-0.1-2.3-1.3-2.2-2.6
			c0.1-1.4,1.2-2.4,2.5-2.3c1.3,0.1,2.3,1.3,2.2,2.6C342.7,139.5,341.5,140.6,340.2,140.5z"/>
	</g>
	<g>
		<path class="st0" d="M272.1,142.3c-0.1-1.4,0.9-2.5,2.2-2.6c0.3,0,0.5,0,0.7,0.1c0.1-7.3,1.4-21.2,8.5-28.2c0,0-13.4,3.3-13.1,8.3
			c-0.4-5-14.2-6.5-14.2-6.5c8,5.9,11.4,19.4,12.7,26.7c0.2,0,0.3-0.1,0.5-0.1C270.8,139.9,271.9,141,272.1,142.3
			c0,1.3-0.9,2.4-2.1,2.6l2.4-0.2l1.9-0.1C273.1,144.5,272.2,143.6,272.1,142.3z M271.9,140.5c-1.3,0.1-2.5-1-2.5-2.3
			c-0.1-1.4,0.9-2.5,2.2-2.6c1.3-0.1,2.5,1,2.5,2.3C274.2,139.2,273.2,140.4,271.9,140.5z"/>
	</g>
	<g>
		<path class="st0" d="M372.1,146.1C372.1,146.1,372.1,146.1,372.1,146.1c-1.1,0-2.1-0.7-2.5-1.7c-0.2-0.7-0.2-1.4,0.1-2
			c0.3-0.6,0.8-1.1,1.5-1.4c0.3-0.1,0.6-0.2,0.9-0.2c1.1,0,2.1,0.7,2.5,1.7c0.5,1.4-0.2,2.9-1.6,3.4
			C372.7,146.1,372.4,146.1,372.1,146.1z M372.1,141.4c-0.2,0-0.5,0-0.7,0.1c-0.5,0.2-1,0.6-1.2,1.1c-0.2,0.5-0.3,1.1-0.1,1.6
			c0.3,0.8,1.1,1.4,2,1.4l0,0c0.2,0,0.5,0,0.7-0.1c1.1-0.4,1.7-1.6,1.3-2.7C373.8,141.9,373,141.4,372.1,141.4z"/>
	</g>
	<g>
		<path class="st0" d="M374.1,141.8C374.1,141.8,374.1,141.8,374.1,141.8c-1.1,0-2.1-0.7-2.5-1.7c-0.2-0.7-0.2-1.4,0.1-2
			c0.3-0.6,0.8-1.1,1.5-1.4c0.3-0.1,0.6-0.2,0.9-0.2c1.1,0,2.1,0.7,2.5,1.7c0.5,1.4-0.2,2.9-1.6,3.4
			C374.7,141.7,374.4,141.8,374.1,141.8z M374.1,137c-0.2,0-0.5,0-0.7,0.1c-0.5,0.2-1,0.6-1.2,1.1c-0.2,0.5-0.3,1.1-0.1,1.6
			c0.3,0.8,1.1,1.4,2,1.4l0,0c0.2,0,0.5,0,0.7-0.1c1.1-0.4,1.7-1.6,1.3-2.7C375.8,137.6,375,137,374.1,137z"/>
	</g>
	<g>
		<path class="st0" d="M303.2,143.1c-1.7,0-3-1.3-3-3c0-1.7,1.4-3,3-3c1.7,0,3,1.4,3,3C306.2,141.7,304.9,143.1,303.2,143.1z
			 M303.2,137.6c-1.4,0-2.5,1.1-2.5,2.5c0,1.4,1.1,2.5,2.5,2.5c1.4,0,2.5-1.1,2.5-2.5C305.7,138.7,304.6,137.6,303.2,137.6z"/>
	</g>
	<g>
		<path class="st0" d="M308.8,143.1c-1.7,0-3-1.3-3-3c0-1.7,1.4-3,3-3c1.7,0,3,1.4,3,3C311.8,141.7,310.5,143.1,308.8,143.1z
			 M308.8,137.6c-1.4,0-2.5,1.1-2.5,2.5c0,1.4,1.1,2.5,2.5,2.5c1.4,0,2.5-1.1,2.5-2.5C311.3,138.7,310.2,137.6,308.8,137.6z"/>
	</g>
	<g>
		<path class="st0" d="M306,138.1c-1.7,0-3-1.4-3-3c0-1.7,1.3-3,3-3c1.7,0,3,1.4,3,3C309,136.8,307.7,138.1,306,138.1z M306,132.6
			c-1.4,0-2.5,1.1-2.5,2.5c0,1.4,1.1,2.5,2.5,2.5c1.4,0,2.5-1.1,2.5-2.5C308.5,133.7,307.4,132.6,306,132.6z"/>
	</g>
	<g>
		<path class="st0" d="M342.5,145.2L342.5,145.2c-0.1,0-0.1,0-0.2,0c-1.5-0.1-2.6-1.4-2.5-2.9c0.1-1.5,1.4-2.7,2.8-2.6
			c0.7,0,1.4,0.4,1.8,0.9c0.5,0.5,0.7,1.2,0.6,2C345.1,144.1,343.9,145.2,342.5,145.2z M342.5,140.2c-1.1,0-2.1,0.9-2.1,2.1
			c-0.1,1.2,0.8,2.3,2,2.4c1.2,0.1,2.2-0.9,2.3-2.1c0-0.6-0.1-1.2-0.5-1.6c-0.4-0.4-0.9-0.7-1.5-0.7
			C342.6,140.2,342.6,140.2,342.5,140.2z"/>
	</g>
	<g>
		<path class="st0" d="M337.6,144.9L337.6,144.9c-0.1,0-0.1,0-0.2,0c-1.5-0.1-2.6-1.4-2.5-2.9c0.1-1.5,1.4-2.6,2.8-2.6
			c0.7,0,1.4,0.4,1.8,0.9c0.5,0.5,0.7,1.2,0.6,2C340.2,143.8,339,144.9,337.6,144.9z M337.7,139.9c-1.1,0-2.1,0.9-2.1,2.1
			c-0.1,1.2,0.8,2.3,2,2.4c1.2,0.1,2.2-0.9,2.3-2.1c0-0.6-0.1-1.2-0.5-1.6c-0.4-0.4-0.9-0.7-1.5-0.7
			C337.8,139.9,337.7,139.9,337.7,139.9z"/>
	</g>
	<g>
		<path class="st0" d="M340.4,140.7L340.4,140.7c-0.1,0-0.1,0-0.2,0c-1.5-0.1-2.6-1.4-2.5-2.9c0.1-1.5,1.4-2.6,2.8-2.6
			c0.7,0,1.4,0.4,1.8,0.9c0.5,0.5,0.7,1.2,0.6,2C342.9,139.6,341.8,140.7,340.4,140.7z M340.4,135.8c-1.1,0-2.1,0.9-2.1,2.1
			c-0.1,1.2,0.8,2.3,2,2.4c1.2,0.1,2.2-0.9,2.3-2.1c0-0.6-0.1-1.2-0.5-1.6c-0.4-0.4-0.9-0.7-1.5-0.7
			C340.5,135.8,340.4,135.8,340.4,135.8z"/>
	</g>
	<g>
		<path class="st0" d="M269.6,145.2c-1.4,0-2.6-1.1-2.6-2.6c-0.1-1.5,1-2.8,2.5-2.9c1.5-0.1,2.7,1.1,2.8,2.6c0.1,1.5-1,2.8-2.5,2.9
			C269.7,145.2,269.7,145.2,269.6,145.2z M269.6,140.2c0,0-0.1,0-0.1,0c-1.2,0.1-2.1,1.1-2,2.4c0.1,1.2,1.1,2.2,2.3,2.1
			c1.2-0.1,2.1-1.1,2-2.4C271.7,141.2,270.7,140.2,269.6,140.2z"/>
	</g>
	<g>
		<path class="st0" d="M274.5,144.9c-1.4,0-2.6-1.1-2.6-2.6c-0.1-1.5,1-2.8,2.5-2.9c1.5-0.1,2.7,1.1,2.8,2.6c0.1,1.5-1,2.8-2.5,2.9
			C274.6,144.9,274.5,144.9,274.5,144.9z M274.5,139.9c0,0-0.1,0-0.1,0c-1.2,0.1-2.1,1.1-2,2.4c0.1,1.2,1.1,2.2,2.3,2.1
			c1.2-0.1,2.1-1.1,2-2.4C276.5,140.9,275.6,139.9,274.5,139.9z"/>
	</g>
	<g>
		<path class="st0" d="M271.8,140.7c-1.4,0-2.6-1.1-2.6-2.6c-0.1-1.5,1-2.8,2.5-2.9c1.5-0.1,2.7,1.1,2.8,2.6c0.1,1.5-1,2.8-2.5,2.9
			C271.9,140.7,271.8,140.7,271.8,140.7z M271.7,135.8c0,0-0.1,0-0.1,0c-1.2,0.1-2.1,1.1-2,2.4c0.1,1.2,1.1,2.2,2.3,2.1
			c1.2-0.1,2.1-1.1,2-2.4C273.8,136.7,272.9,135.8,271.7,135.8z"/>
	</g>
	<g>
		<path class="st0" d="M239.4,146.1c-0.3,0-0.6-0.1-0.9-0.2c-0.7-0.2-1.2-0.7-1.5-1.4c-0.3-0.6-0.3-1.4-0.1-2c0.4-1,1.4-1.7,2.5-1.7
			c0.3,0,0.6,0.1,0.9,0.2c0.7,0.2,1.2,0.7,1.5,1.4c0.3,0.6,0.3,1.4,0.1,2C241.5,145.5,240.5,146.1,239.4,146.1z M239.4,141.4
			c-0.9,0-1.7,0.6-2,1.4c-0.2,0.5-0.2,1.1,0.1,1.6c0.2,0.5,0.7,0.9,1.2,1.1c0.2,0.1,0.5,0.1,0.7,0.1c0.9,0,1.7-0.6,2-1.4
			c0.4-1.1-0.2-2.3-1.3-2.7C239.9,141.4,239.7,141.4,239.4,141.4z"/>
	</g>
	<g>
		<path class="st0" d="M237.4,141.8c-0.3,0-0.6-0.1-0.9-0.2c-1.4-0.5-2.1-2-1.6-3.4c0.4-1,1.4-1.7,2.5-1.7c0.3,0,0.6,0.1,0.9,0.2
			c0.7,0.2,1.2,0.7,1.5,1.4c0.3,0.6,0.3,1.4,0.1,2C239.5,141.1,238.5,141.8,237.4,141.8z M237.4,137c-0.9,0-1.7,0.6-2,1.4
			c-0.4,1.1,0.2,2.3,1.3,2.7c0.2,0.1,0.5,0.1,0.7,0.1c0.9,0,1.7-0.6,2-1.4c0.2-0.5,0.2-1.1-0.1-1.6c-0.2-0.5-0.7-0.9-1.2-1.1
			C237.9,137.1,237.6,137,237.4,137z"/>
	</g>
	<g>
		<path class="st0" d="M366.2,250.4L366.2,250.4c-0.2,0-0.3,0-0.5,0c-0.3,0-0.6,0.1-0.7,0.2c-0.2,0.1-0.2,0.3-0.2,0.3
			c0,0-0.1-0.2,0.1-0.4c0.1-0.2,0.4-0.5,0.7-0.6c0.1-0.1,0.2-0.1,0.3-0.2c-0.3-0.4-0.7-0.7-1.2-1c-0.5-0.3-1-0.4-1.4-0.4
			c-0.1,0-0.3,0.1-0.4,0.1c-0.2,0.1-0.5,0.2-0.6,0.4c-0.1,0.2-0.2,0.3-0.2,0.3c0,0,0-0.2,0-0.4c0.1-0.2,0.3-0.5,0.5-0.8
			c0.1-0.1,0.2-0.2,0.3-0.3c-0.5-0.7-1.6-1.2-3-1.3l-0.1,0c-0.2,0.1-0.6,0.2-0.8,0.4c-0.3,0.2-0.5,0.5-0.7,0.8
			c-0.1,0.3-0.1,0.6-0.1,0.6c0,0,0-0.2,0-0.6c0-0.4,0.2-0.9,0.5-1.2c0.1-0.2,0.3-0.4,0.4-0.5c-0.6-0.6-1.7-1.1-3-1.2
			c-0.5,0-1,0-1.5,0.1c-0.1,0-0.2,0.1-0.3,0.2c-0.3,0.2-0.6,0.5-1,0.8c-0.2,0.2-0.3,0.3-0.5,0.5c-0.1,0.2-0.3,0.4-0.4,0.5
			c-0.2,0.3-0.3,0.6-0.3,0.6s0-0.3,0.1-0.7c0.1-0.2,0.1-0.4,0.2-0.6c0.1-0.2,0.2-0.5,0.3-0.7c0.2-0.4,0.5-0.7,0.7-1
			c-0.6-0.5-1.6-0.8-2.7-0.9c-0.8-0.1-2.2,0.2-2.9,0.4l0,0c-0.2,0.3-0.5,0.7-0.8,1.2c-0.1,0.2-0.3,0.5-0.3,0.7
			c-0.1,0.2-0.2,0.5-0.2,0.7c-0.1,0.4-0.1,0.7-0.1,0.7s0-0.3,0-0.7c0-0.2,0.1-0.5,0.1-0.8c0-0.3,0.1-0.6,0.2-0.9
			c0.1-0.4,0.3-0.8,0.4-1.2c-0.6-0.5-1.7-0.9-2.9-0.9c-1.1,0-2.8,0.7-3.3,0.9c-0.2,0.3-0.4,0.8-0.6,1.2c-0.1,0.2-0.2,0.5-0.3,0.7
			c-0.1,0.2-0.2,0.5-0.2,0.7c-0.1,0.4-0.1,0.7-0.1,0.7s0-0.3,0-0.7c0-0.2,0-0.5,0-0.7c0-0.3,0.1-0.6,0.1-0.8c0.1-0.5,0.2-1,0.3-1.4
			c-0.6-0.3-1.5-0.5-2.4-0.5c-1.3,0-3.1,0.9-3.6,1.2c-0.1,0.1-0.1,0.3-0.2,0.4c-0.1,0.2-0.2,0.5-0.3,0.7c-0.2,1.1-0.5,2.1-0.5,2.1
			s0-1.1,0-2.2c0-0.3,0.1-0.6,0.1-0.8c0-0.2,0-0.5,0.1-0.7c-0.6-0.4-1.6-0.7-2.7-0.7c-1.2,0-2.8,0.8-3.3,1c-0.2,0.3-0.3,0.6-0.5,1
			c-0.1,0.2-0.2,0.5-0.2,0.7c-0.1,0.2-0.1,0.4-0.2,0.6c-0.1,0.4-0.1,0.6-0.1,0.6s0-0.3,0-0.6c0-0.2,0-0.4,0-0.7c0-0.3,0-0.5,0.1-0.8
			c0-0.5,0.1-0.9,0.2-1.3c-0.6-0.4-1.6-0.7-2.7-0.7c-1.1,0-2.1,0.3-2.8,0.7c-0.1,0.2-0.2,0.4-0.3,0.7c-0.1,0.1-0.1,0.3-0.2,0.4
			c0,0.1-0.1,0.3-0.1,0.4c-0.1,0.2-0.1,0.4-0.1,0.4s0-0.2,0-0.4c0-0.1,0-0.3,0-0.4c0-0.2,0-0.3,0-0.5c0-0.2,0-0.4,0-0.6
			c-3-0.3-5.5-0.7-7.3-1c-0.5-1.9-1-3.1-1-3.1c3.3-3.3,3.8-9.2,3.8-9.2c-0.8-0.5-1.6-1-2.2-1.6l-2.1,4l1.3-4.6
			c-1.2-1.1-2.1-2.2-2.8-3.3l-1.1,4.4l0.4-5.5c-1.3-2.1-1.8-3.8-3.2-4.1l-0.5,8.4l-0.5-8.4c-1.4,0.3-1.9,2-3.3,4.2l0.4,5.5l-1.1-4.4
			c-0.7,1-1.6,2.1-2.9,3.2l1.3,4.7l-2.1-4c-0.6,0.5-1.3,1-2.1,1.5c0,0,0.5,5.9,3.8,9.2c0,0-0.5,1.2-1,3.1c-1.6,0.3-3.9,0.6-6.7,1
			c0,0.2,0,0.4,0.1,0.7c0,0.2,0,0.3,0,0.5c0,0.2,0,0.3,0,0.4c0,0.3,0,0.4,0,0.4s0-0.2-0.1-0.4c0-0.1-0.1-0.3-0.1-0.4
			c0-0.1-0.1-0.3-0.2-0.4c-0.1-0.3-0.2-0.6-0.3-0.8l0,0c-0.6-0.4-1.6-0.7-2.7-0.7c-1,0-1.9,0.2-2.6,0.6c0.1,0.4,0.2,0.9,0.3,1.4
			c0,0.3,0.1,0.5,0.1,0.8c0,0.2,0,0.5,0,0.7c0,0.4,0,0.6,0,0.6s0-0.3-0.1-0.6c0-0.2-0.1-0.4-0.2-0.6c-0.1-0.2-0.1-0.5-0.2-0.7
			c-0.1-0.4-0.3-0.7-0.4-1c-0.1,0-2.1-1-3.4-1c-1,0-2,0.2-2.6,0.6l0,0c0.1,0.3,0.1,0.5,0.1,0.8c0,0.3,0.1,0.6,0.1,0.8
			c0,1.1,0,2.2,0,2.2s-0.2-1.1-0.5-2.1c-0.1-0.2-0.2-0.5-0.3-0.7c-0.1-0.2-0.1-0.3-0.2-0.5c-0.2-0.1-2.3-1.2-3.7-1.2
			c-0.9,0-1.7,0.2-2.4,0.5c0.1,0.4,0.3,0.9,0.3,1.5c0,0.3,0.1,0.6,0.1,0.8c0,0.3,0,0.5,0,0.7c0,0.4,0,0.7,0,0.7s0-0.3-0.1-0.7
			c0-0.2-0.1-0.4-0.2-0.7c-0.1-0.2-0.2-0.5-0.3-0.7c-0.2-0.4-0.4-0.9-0.6-1.2c-0.2-0.1-2.1-1-3.4-1c-0.9,0-1.8,0.2-2.4,0.5
			c0.2,0.4,0.4,1,0.6,1.5c0.1,0.3,0.1,0.6,0.2,0.9c0,0.3,0.1,0.5,0.1,0.8c0,0.4,0,0.7,0,0.7s-0.1-0.3-0.1-0.7
			c-0.1-0.2-0.2-0.4-0.2-0.7c-0.1-0.2-0.2-0.5-0.4-0.7c-0.3-0.5-0.6-0.9-0.8-1.2l0,0l0,0c-0.3,0-2.4-0.5-3.6-0.4
			c-1,0.1-1.8,0.4-2.4,0.8l0,0c0.3,0.3,0.6,0.7,0.8,1.2c0.1,0.2,0.3,0.5,0.3,0.7c0.1,0.2,0.2,0.5,0.2,0.6c0.1,0.4,0.1,0.7,0.1,0.7
			s-0.1-0.2-0.3-0.6c-0.1-0.2-0.2-0.3-0.3-0.5c-0.1-0.2-0.3-0.3-0.5-0.5c-0.3-0.3-0.7-0.6-1-0.8l-0.2-0.1l0,0
			c-0.6-0.2-1.2-0.2-2-0.2c-1.2,0.1-2.2,0.5-2.8,1c0.2,0.2,0.4,0.4,0.6,0.7c0.3,0.4,0.5,0.9,0.5,1.2c0.1,0.4,0,0.6,0,0.6
			c0,0,0-0.3-0.1-0.6c-0.1-0.3-0.4-0.6-0.7-0.8c-0.3-0.2-0.6-0.3-0.8-0.4l-0.1,0l-0.2,0c-1.4,0.1-2.6,0.7-3.1,1.4l0.2,0.2
			c0.2,0.2,0.4,0.5,0.5,0.8c0.1,0.3,0,0.4,0,0.4c0,0,0-0.2-0.2-0.3c-0.1-0.2-0.3-0.3-0.6-0.4l-0.2-0.1l0,0l0,0
			c-0.5-0.2-1.4-0.1-2.2,0.3c-0.6,0.3-1.1,0.7-1.3,1.2c0.3,0.2,0.5,0.4,0.7,0.6c0.1,0.2,0.1,0.4,0.1,0.4c0,0,0-0.2-0.2-0.3
			c-0.2-0.1-0.4-0.2-0.7-0.2l0,0l0,0c-2.8,1.6-4.4,2.9-4.4,2.9s9.3-1,17.9,3.2c8.4,4.1,13.3,8.8,40.6,2.2c0.7,1.6,1.6,3.3,2.9,4.8
			c-2.5,1.2-4.3,3.8-4.3,6.9c0,3.6,2.5,6.6,5.8,7.4l-0.3-0.6l0.6,1.2l1.6,3l1.5-2.9l0.6-1.2l-0.3,0.6c3.3-0.8,5.8-3.8,5.8-7.4
			c0-3-1.7-5.6-4.3-6.9c1.2-1.6,2.2-3.2,2.9-4.8c27.2,6.6,32.2,1.9,40.6-2.2c8.5-4.2,17.9-3.2,17.9-3.2S369,252,366.2,250.4z
			 M298.5,254c-0.2-0.5-0.3-1-0.4-1.6c-0.2-0.6-0.2-1.2-0.3-1.9c-0.1-0.6-0.1-1.3-0.1-1.9c0-0.6,0.1-1.2,0.1-1.6
			c0.1-1,0.3-1.6,0.3-1.6s0,0.2,0,0.4c0,0.3,0,0.7,0,1.2c0,0.5,0,1,0,1.6c0.1,0.6,0.1,1.2,0.1,1.8c0.1,0.6,0.1,1.3,0.2,1.8
			c0.1,0.6,0.1,1.1,0.2,1.6c0.2,0.9,0.3,1.6,0.3,1.6S298.8,254.9,298.5,254z M302,274.5c0,0,1.5-0.3,1.7,1.4
			C303.7,275.9,302.3,275.9,302,274.5z M307,278.4l-1,1.8l-1-1.8l-0.5-1c0.3-0.1,0.8-0.3,1.5-0.3c0.5,0,1,0.1,1.5,0.3L307,278.4z
			 M310,274.5c-0.3,1.4-1.7,1.4-1.7,1.4C308.5,274.2,310,274.5,310,274.5z M313.9,250.5c-0.1,0.6-0.1,1.3-0.3,1.9
			c-0.1,0.6-0.2,1.1-0.4,1.6c-0.3,0.9-0.6,1.5-0.6,1.5s0.1-0.6,0.3-1.6c0.1-0.5,0.1-1,0.2-1.6c0.1-0.6,0.1-1.2,0.2-1.8
			c0.1-0.6,0.1-1.3,0.1-1.8c0-0.6,0.1-1.1,0-1.6c0-0.5,0-0.9,0-1.2c0-0.3,0-0.4,0-0.4s0.2,0.6,0.3,1.6c0.1,0.5,0.1,1,0.1,1.6
			C314,249.2,314,249.9,313.9,250.5z"/>
	</g>
	<g>
		<g>
			<g>
				<g>
					<polygon class="st0" points="244.8,258.1 238.7,272.9 243.8,257.7 					"/>
					<path class="st0" d="M235.9,280.3l7.8-23l1.4,0.5L235.9,280.3z M244,258.1l-2.5,7.3l2.9-7.2L244,258.1z"/>
				</g>
			</g>
			<g>
				<g>
					<path class="st0" d="M235.9,280.3l7.8-23l1.4,0.5L235.9,280.3z M244,258.1l-2.5,7.3l2.9-7.2L244,258.1z"/>
					<path class="st0" d="M233.1,287.8l10.4-30.8l1.9,0.7L233.1,287.8z M241.7,264l-3,8.9l0,0L241.7,264z M244.1,257.8l0.7,0.3
						l-2.4,5.9l2.4-5.9L244.1,257.8z"/>
				</g>
			</g>
		</g>
		<g>
			<g>
				<g>
					<polygon class="st0" points="255.7,260.6 250.3,275.4 254.8,260.3 					"/>
					<path class="st0" d="M247.8,282.9l6.8-22.9l1.5,0.5L247.8,282.9z M254.9,260.6l-2.2,7.3l2.6-7.2L254.9,260.6z"/>
				</g>
			</g>
			<g>
				<g>
					<path class="st0" d="M247.8,282.9l6.8-22.9l1.5,0.5L247.8,282.9z M254.9,260.6l-2.2,7.3l2.6-7.2L254.9,260.6z"/>
					<path class="st0" d="M245.3,290.3l9.1-30.7l2,0.7L245.3,290.3z M250.3,275.4L250.3,275.4l3-8.2L250.3,275.4z M254.8,260.3
						l0.6,0.2L254.8,260.3L254.8,260.3z"/>
				</g>
			</g>
		</g>
		<g>
			<g>
				<g>
					<polygon class="st0" points="268.4,264.5 264.3,279.8 267.4,264.3 					"/>
					<path class="st0" d="M262.6,287.5l4.6-23.5l1.5,0.3L262.6,287.5z M267.6,264.6l-1.5,7.5l1.9-7.4L267.6,264.6z"/>
				</g>
			</g>
			<g>
				<g>
					<path class="st0" d="M262.6,287.5l4.6-23.5l1.5,0.3L262.6,287.5z M267.6,264.6l-1.5,7.5l1.9-7.4L267.6,264.6z"/>
					<path class="st0" d="M260.8,295.2l6.1-31.5l2,0.5L260.8,295.2z M266.1,271l-1.7,8.8l0,0L266.1,271z M268.4,264.5l-1.8,6.9
						L268.4,264.5z"/>
				</g>
			</g>
		</g>
		<g>
			<g>
				<g>
					<polygon class="st0" points="280.2,265.8 279.3,281.9 279.2,265.7 					"/>
					<path class="st0" d="M279.1,290l-0.1-24.5l1.5,0L279.1,290z M279.5,266l0,7.8l0.5-7.8L279.5,266z"/>
				</g>
			</g>
			<g>
				<g>
					<path class="st0" d="M279.1,290l-0.1-24.5l1.5,0L279.1,290z M279.5,266l0,7.8l0.5-7.8L279.5,266z"/>
					<path class="st0" d="M278.9,298l-0.2-32.8l2.1,0.1L278.9,298z M279.2,265.7l1,0l-0.8,14l0.8-14L279.2,265.7l0,7.4L279.2,265.7z
						"/>
				</g>
			</g>
		</g>
		<g>
			<g>
				<g>
					<polygon class="st0" points="291.5,265.7 292.9,281.4 290.5,265.8 					"/>
					<path class="st0" d="M293.9,289.2l-3.7-23.6l1.5-0.2L293.9,289.2z M290.7,266l1.2,7.5l-0.7-7.6L290.7,266z"/>
				</g>
			</g>
			<g>
				<g>
					<path class="st0" d="M293.9,289.2l-3.7-23.6l1.5-0.2L293.9,289.2z M290.7,266l1.2,7.5l-0.7-7.6L290.7,266z"/>
					<path class="st0" d="M294.9,297l-5-31.6l2.1-0.3L294.9,297z M291.1,270.2l1.8,11.2L291.1,270.2z"/>
				</g>
			</g>
		</g>
		<g>
			<g>
				<g>
					<polygon class="st0" points="250.1,259.5 247.3,265.8 249.1,259.2 					"/>
					<path class="st0" d="M246.1,269l2.8-10.2l1.5,0.5L246.1,269z M249.3,259.5l-0.8,3l1.3-2.9L249.3,259.5z"/>
				</g>
			</g>
			<g>
				<g>
					<path class="st0" d="M246.1,269l2.8-10.2l1.5,0.5L246.1,269z M249.3,259.5l-0.8,3l1.3-2.9L249.3,259.5z"/>
					<path class="st0" d="M244.9,272.2l3.8-13.7l2,0.7L244.9,272.2z M247.3,265.8L247.3,265.8l1.3-2.9L247.3,265.8z M249.1,259.2
						l-0.9,3.4L249.1,259.2l1,0.3L249.1,259.2z"/>
				</g>
			</g>
		</g>
		<g>
			<g>
				<g>
					<polygon class="st0" points="262.7,263.2 260.6,268.8 261.7,263 					"/>
					<path class="st0" d="M259.8,271.6l1.7-9l1.5,0.4L259.8,271.6z M261.9,263.3l-0.5,2.7l1-2.5L261.9,263.3z"/>
				</g>
			</g>
			<g>
				<g>
					<path class="st0" d="M259.8,271.6l1.7-9l1.5,0.4L259.8,271.6z M261.9,263.3l-0.5,2.7l1-2.5L261.9,263.3z"/>
					<path class="st0" d="M259,274.5l2.3-12.2l2.1,0.6L259,274.5z M260.6,268.8L260.6,268.8l2.1-5.6l-1-0.3l1,0.3L260.6,268.8z"/>
				</g>
			</g>
		</g>
		<g>
			<g>
				<g>
					<polygon class="st0" points="274.5,265.9 273.1,271.2 273.5,265.7 					"/>
					<path class="st0" d="M272.6,273.9l0.6-8.5l1.6,0.3L272.6,273.9z M273.7,266l-0.2,2.5l0.6-2.4L273.7,266z"/>
				</g>
			</g>
			<g>
				<g>
					<path class="st0" d="M272.6,273.9l0.6-8.5l1.6,0.3L272.6,273.9z M273.7,266l-0.2,2.5l0.6-2.4L273.7,266z"/>
					<path class="st0" d="M272.2,276.6l0.9-11.5l2.1,0.4L272.2,276.6z M273.5,265.7l-0.4,5.5v0L273.5,265.7l1,0.2l-0.5,2l0.5-2
						L273.5,265.7z"/>
				</g>
			</g>
		</g>
		<g>
			<g>
				<g>
					<polygon class="st0" points="286,265.9 285.9,271.7 285,266 					"/>
					<path class="st0" d="M286.1,274.6l-1.4-8.8l1.6-0.1L286.1,274.6z M285.3,266.2l0.4,2.6l0.1-2.6L285.3,266.2z"/>
				</g>
			</g>
			<g>
				<g>
					<path class="st0" d="M286.1,274.6l-1.4-8.8l1.6-0.1L286.1,274.6z M285.3,266.2l0.4,2.6l0.1-2.6L285.3,266.2z"/>
					<path class="st0" d="M286.3,277.4l-1.8-11.9l2.1-0.1L286.3,277.4z M285.1,266.8l0.7,4.8v0L285.1,266.8z"/>
				</g>
			</g>
		</g>
		<g>
			<g>
				<g>
					<polygon class="st0" points="368.2,257.7 373.3,272.9 367.2,258.1 					"/>
					<path class="st0" d="M376.1,280.4l-9.2-22.4l1.4-0.5l0.1,0.2L376.1,280.4z M367.6,258.2l2.9,7.1l-2.5-7.3L367.6,258.2z"/>
				</g>
			</g>
			<g>
				<g>
					<path class="st0" d="M376.1,280.4l-9.2-22.4l1.4-0.5l0.1,0.2L376.1,280.4z M367.6,258.2l2.9,7.1l-2.5-7.3L367.6,258.2z"/>
					<path class="st0" d="M379,287.9l-12.4-30.1l1.9-0.7L379,287.9z M371.9,269.4l1.4,3.5l0,0L371.9,269.4z"/>
				</g>
			</g>
		</g>
		<g>
			<g>
				<g>
					<polygon class="st0" points="357.2,260.3 361.7,275.4 356.3,260.6 					"/>
					<path class="st0" d="M364.2,282.9l-8.3-22.4l1.5-0.5L364.2,282.9z M356.6,260.7l2.6,7.2l-2.2-7.3L356.6,260.7z"/>
				</g>
			</g>
			<g>
				<g>
					<path class="st0" d="M364.2,282.9l-8.3-22.4l1.5-0.5L364.2,282.9z M356.6,260.7l2.6,7.2l-2.2-7.3L356.6,260.7z"/>
					<path class="st0" d="M366.7,290.3l-11.1-30.1l2-0.7L366.7,290.3z M356.3,260.6l5.5,14.8l0,0L356.3,260.6l1-0.3L356.3,260.6z"/>
				</g>
			</g>
		</g>
		<g>
			<g>
				<g>
					<polygon class="st0" points="344.6,264.3 347.7,279.8 343.6,264.5 					"/>
					<path class="st0" d="M349.4,287.5l-6.1-23.2l1.5-0.3l0.1,0.3L349.4,287.5z M344,264.7l1.9,7.4l-1.5-7.5L344,264.7z"/>
				</g>
			</g>
			<g>
				<g>
					<path class="st0" d="M349.4,287.5l-6.1-23.2l1.5-0.3l0.1,0.3L349.4,287.5z M344,264.7l1.9,7.4l-1.5-7.5L344,264.7z"/>
					<path class="st0" d="M351.2,295.2l-8.2-31.1l2-0.5l0.1,0.5L351.2,295.2z M343.6,264.5l4,15.3l0,0L343.6,264.5z M344.6,264.3
						l0.2,0.8L344.6,264.3z"/>
				</g>
			</g>
		</g>
		<g>
			<g>
				<g>
					<polygon class="st0" points="332.8,265.7 332.7,281.9 331.8,265.8 					"/>
					<path class="st0" d="M332.9,290l-1.4-24.5l1.5,0L332.9,290z M332,266l0.5,7.8l0-7.8L332,266z"/>
				</g>
			</g>
			<g>
				<g>
					<path class="st0" d="M332.9,290l-1.4-24.5l1.5,0L332.9,290z M332,266l0.5,7.8l0-7.8L332,266z"/>
					<path class="st0" d="M333.1,298.1l-1.9-32.8l2.1-0.1l0,0.3L333.1,298.1z M332.7,281.9L332.7,281.9l0.1-10.3L332.7,281.9z
						 M331.8,265.8l0.2,3.1L331.8,265.8l1,0L331.8,265.8z"/>
				</g>
			</g>
		</g>
		<g>
			<g>
				<g>
					<polygon class="st0" points="321.5,265.8 319.1,281.4 320.5,265.7 					"/>
					<path class="st0" d="M318.1,289.2l2.2-23.8l1.5,0.2L318.1,289.2z M320.8,266l-0.7,7.6l1.2-7.5L320.8,266z"/>
				</g>
			</g>
			<g>
				<g>
					<path class="st0" d="M318.1,289.2l2.2-23.8l1.5,0.2L318.1,289.2z M320.8,266l-0.7,7.6l1.2-7.5L320.8,266z"/>
					<path class="st0" d="M317.1,297l2.9-31.9l2.1,0.3L317.1,297z M319.1,281.4L319.1,281.4l1.8-11.1L319.1,281.4z M320.5,265.7
						l-0.8,8.6L320.5,265.7l0.4,0.1L320.5,265.7z"/>
				</g>
			</g>
		</g>
		<g>
			<g>
				<g>
					<polygon class="st0" points="362.9,259.2 364.7,265.8 362,259.5 					"/>
					<path class="st0" d="M365.9,269l-4.3-9.6l1.5-0.5L365.9,269z M362.3,259.7l1.3,2.9l-0.8-3L362.3,259.7z"/>
				</g>
			</g>
			<g>
				<g>
					<path class="st0" d="M365.9,269l-4.3-9.6l1.5-0.5L365.9,269z M362.3,259.7l1.3,2.9l-0.8-3L362.3,259.7z"/>
					<path class="st0" d="M367.1,272.2l-5.8-13l2-0.7L367.1,272.2z M364.7,265.8L364.7,265.8l-1.8-6.6l-0.7,0.2l0.7-0.2L364.7,265.8
						z"/>
				</g>
			</g>
		</g>
		<g>
			<g>
				<g>
					<polygon class="st0" points="350.3,263 351.4,268.8 349.3,263.2 					"/>
					<path class="st0" d="M352.2,271.6l-3.3-8.6l1.5-0.4L352.2,271.6z M349.6,263.4l1,2.5l-0.5-2.7L349.6,263.4z"/>
				</g>
			</g>
			<g>
				<g>
					<path class="st0" d="M352.2,271.6l-3.3-8.6l1.5-0.4L352.2,271.6z M349.6,263.4l1,2.5l-0.5-2.7L349.6,263.4z"/>
					<path class="st0" d="M353,274.5l-4.4-11.6l2.1-0.6L353,274.5z M350.3,263l1,5.1L350.3,263L350.3,263z"/>
				</g>
			</g>
		</g>
		<g>
			<g>
				<g>
					<polygon class="st0" points="338.5,265.7 338.9,271.2 337.5,265.9 					"/>
					<path class="st0" d="M339.4,273.9l-2.2-8.2l1.6-0.3L339.4,273.9z M337.8,266.1l0.6,2.4l-0.2-2.5L337.8,266.1z"/>
				</g>
			</g>
			<g>
				<g>
					<path class="st0" d="M339.4,273.9l-2.2-8.2l1.6-0.3L339.4,273.9z M337.8,266.1l0.6,2.4l-0.2-2.5L337.8,266.1z"/>
					<path class="st0" d="M339.8,276.6l-3-11.1l2.1-0.4L339.8,276.6z M338.9,271.2L338.9,271.2l-0.2-2.8L338.9,271.2z M337.5,265.9
						l0.5,2L337.5,265.9z M338.5,265.7l-1,0.2L338.5,265.7z"/>
				</g>
			</g>
		</g>
		<g>
			<g>
				<g>
					<polygon class="st0" points="327,266 326.1,271.7 326,265.9 					"/>
					<path class="st0" d="M325.9,274.6l-0.2-8.9l1.6,0.1L325.9,274.6z M326.2,266.2l0.1,2.6l0.4-2.6L326.2,266.2z"/>
				</g>
			</g>
			<g>
				<g>
					<path class="st0" d="M325.9,274.6l-0.2-8.9l1.6,0.1L325.9,274.6z M326.2,266.2l0.1,2.6l0.4-2.6L326.2,266.2z"/>
					<path class="st0" d="M325.8,277.4l-0.3-12.1l2.1,0.1L325.8,277.4z M326,265.9l0.1,5.8v0L326,265.9z M326.3,265.9l0.7,0
						l-0.4,2.6l0.4-2.6L326.3,265.9z"/>
				</g>
			</g>
		</g>
	</g>
	<g>
		<path class="st0" d="M308.1,289.5c0,0-1.3-1.8-1.3-2.8c0-1-1.7-1.8-1.7-1.8c0.4,0.6-0.7,3.2-1.4,4.6c-0.2,0.3-0.5,0.9-0.5,0.9
			c-0.1,0.3-0.1,0.5-0.1,0.8c0,1.6,1.2,2.9,2.7,2.9c1.5,0,2.7-1.3,2.7-2.9C308.6,290.6,308.4,290,308.1,289.5z"/>
	</g>
	<g>
		<path class="st0" d="M305.9,351.9c-1.3,0-2.6,0.1-3.9,0.2v16.5c0,2.1,1.8,3.9,4.1,3.9c2.2,0,4.1-1.7,4.1-3.9v-16.5
			C308.6,352,307.2,352,305.9,351.9z"/>
	</g>
	<g>
		<path class="st0" d="M306.4,305L306.4,305c0.7-0.2,1.9-0.4,3.7-0.6v-5.5c0-2-1.8-3.7-4.1-3.7c-2.2,0-4.1,1.6-4.1,3.7v5.5
			c1.6,0.2,2.8,0.4,3.4,0.5v0H306.4z"/>
	</g>
	<g>
		<path class="st0" d="M352.2,316.5c-1.8-1.2-2.9-1.6-2.9-1.6l-0.1,0.5l-12.8,38.3l-0.5-0.1c-0.2-0.1-17.7-5.1-29.9-5.1
			c-12.3,0-30.1,5.1-30.2,5.1l-0.5,0.1l-12.8-38.1l-0.2-0.6c0,0-1,0.5-2.4,1.5l-0.2,0.2l13.3,41.3l0.4-0.1
			c0.2-0.1,18.9-6.7,32.5-6.8c13.7,0,31.9,6.7,32.1,6.8l0.4,0.1l14-41l0.1-0.3L352.2,316.5z M337.8,357c-2.7-0.9-19.3-6.7-32-6.7
			c-12.7,0-29.7,5.8-32.4,6.7l-12.9-40c0.2-0.1,0.4-0.3,0.6-0.4l0.4-0.3l12.7,39.2c0,0,19-6.1,31.5-6.1c12.5,0,31.5,6.1,31.5,6.1
			l13.2-39.1l0.4,0.2c0.2,0.1,0.4,0.3,0.6,0.4L337.8,357z"/>
	</g>
	<g>
		<path class="st0" d="M305.9,347.9c12.5,0,30.1,5.1,30.1,5.1l12.9-38.7c-0.4-0.3-0.7-0.5-1.1-0.8l-13.1,37.7l-0.5-0.1
			c-0.2,0-16.2-4.3-28.4-4.3c-12.3,0-28.1,4.3-28.3,4.3l-0.5,0.1l-13.5-37.7c-0.4,0.3-0.8,0.5-1.1,0.8l13,38.7
			C275.6,353.1,293.5,348,305.9,347.9z"/>
	</g>
	<g>
		<path class="st0" d="M306.4,306v27.6c0.3-0.7,0.6-1.6,0.9-2.6c2.6-7,4.1-10.5,7.2-17.3c2.1,0.1,3.2,0.1,5.3,0.3
			c-0.6,10-1,15-1.6,25.1c-1.3-0.1-2-0.1-3.3-0.2c0.4-8.4,0.6-12.6,1-21c-3.8,8.2-5.5,12.4-8.5,20.8c-0.3,0-0.6,0-0.9,0v7.6
			c12.4,0.2,28.1,4.4,28.1,4.4l13.3-38.5C332.7,301,310,305.2,306.4,306z M334.5,338.2c-0.8,1-1.9,1.6-3.2,2c-1.3,0.3-2.6,0.3-4.2,0
			c-2.2-0.5-3.8-1.4-4.7-2.8c-0.9-1.5-1.1-3.4-0.6-5.8c1.3,0,2,0.1,3.3,0.1c-0.4,1.9-0.3,3.2,0.2,4.1c0.5,0.8,1.3,1.3,2.5,1.6
			c0.9,0.2,1.6,0.1,2.4-0.1c0.7-0.2,1.3-0.6,1.7-1.2c0.4-0.6,0.8-1.6,1.2-3c1.9-6.7,2.9-10,4.9-16.7c1.5,0.4,2.3,0.5,3.8,0.9
			c-2.1,6.6-3.2,9.8-5.2,16.4C336.1,335.7,335.4,337.2,334.5,338.2z"/>
	</g>
	<g>
		<path class="st0" d="M304.2,338.7c-3.1-8.5-4.9-12.7-8.7-21.1c0.5,8.5,0.7,12.8,1.2,21.4c-1.3,0.1-2,0.1-3.3,0.2
			c-0.7-10-1.1-15-1.8-25.1c2.4-0.2,3.5-0.2,5.9-0.3c3.1,7,4.6,10.5,7.2,17.6c0.3,0.8,0.6,1.5,0.8,2.1V306c-3.6-0.8-26.6-5-41.6,6.2
			l13.7,38.5c0,0,15.5-4.2,27.9-4.4v-7.6C305,338.7,304.6,338.7,304.2,338.7z M288.8,335.7c-0.3,1.2-0.9,2.2-1.9,3
			c-1,0.8-2.2,1.4-3.7,1.7c-2.2,0.5-4.1,0.3-5.6-0.6c-1.5-0.9-2.7-2.6-3.4-5c1.2-0.5,1.8-0.7,3-1.2c0.6,1.8,1.4,3,2.2,3.5
			c0.9,0.5,1.8,0.7,3,0.4c0.9-0.2,1.5-0.5,2.1-1c0.5-0.5,0.8-1.1,0.9-1.8c0.1-0.7-0.1-1.7-0.4-3.1c-1.7-6.7-2.6-10.1-4.4-16.8
			c1.5-0.3,2.3-0.5,3.8-0.7c1.7,6.7,2.5,10,4.1,16.7C289,332.9,289.1,334.5,288.8,335.7z"/>
	</g>
	<g>
		<g>
			<path class="st0" d="M314.3,413.6l-0.2-1c41.1-8.2,58-92.6,58.2-93.4l1,0.2c0,0.2-4.2,20.7-13.5,41.9
				C351.3,380.9,336.2,409.2,314.3,413.6z"/>
		</g>
		<g>
			<path class="st0" d="M313.9,414.2l-0.4-2l0.5-0.1c40.2-8.1,57.1-89.6,57.8-93l0.1-0.5l2,0.4l-0.1,0.5c0,0.2-4.2,20.6-13.5,42
				c-14,32-29,49.2-45.9,52.6L313.9,414.2z"/>
		</g>
	</g>
	<g>
		<path class="st0" d="M355.4,328.5c0,0,0.6,26.4,9.5,18.5C367.5,337.3,355.4,328.5,355.4,328.5z M362.9,345.8c0,0,0-0.2-0.1-0.6
			c0-0.2-0.1-0.4-0.1-0.7c0-0.3-0.1-0.6-0.2-0.9c-0.2-0.6-0.5-1.4-0.8-2.1c-0.3-0.8-0.7-1.6-1.1-2.4c-0.8-1.6-1.6-3.2-2.2-4.4
			c-0.6-1.2-1-2-1-2s0.6,0.7,1.3,1.9c0.4,0.6,0.8,1.2,1.2,2c0.4,0.7,0.8,1.5,1.2,2.4c0.4,0.8,0.8,1.7,1,2.5c0.3,0.8,0.5,1.6,0.7,2.2
			c0.1,0.3,0.1,0.6,0.2,0.9c0,0.3,0.1,0.5,0,0.7C362.9,345.6,362.9,345.8,362.9,345.8z"/>
	</g>
	<g>
		<path class="st0" d="M363.3,352.3c5.7,10.8,16.4-11.2,16.4-11.2S363.9,342.1,363.3,352.3z M370.9,347.4c-0.7,0.5-1.4,1-2,1.5
			c-0.6,0.5-1.2,0.9-1.7,1.4c-0.5,0.4-0.9,0.8-1.2,1.1c-0.2,0.3-0.4,0.5-0.4,0.5s0.1-0.2,0.3-0.5c0.2-0.3,0.6-0.7,1-1.2
			c0.5-0.5,1-1,1.7-1.5c0.6-0.5,1.3-1,2-1.6c1.4-1,2.9-1.9,4-2.6c1.1-0.7,1.9-1.1,1.9-1.1s-0.7,0.5-1.7,1.3
			C373.7,345.4,372.3,346.4,370.9,347.4z"/>
	</g>
	<g>
		<path class="st0" d="M352.1,336.3c0,0,0.6,27.9,9.4,20.1C364.2,346.5,352.1,336.3,352.1,336.3z M359.3,354.1
			c0-0.2-0.1-0.4-0.2-0.7c-0.1-0.3-0.2-0.6-0.3-0.9c-0.2-0.6-0.5-1.4-0.8-2.2c-0.3-0.8-0.6-1.6-1-2.5c-0.7-1.7-1.4-3.4-1.9-4.6
			c-0.5-1.3-0.9-2.1-0.9-2.1s0.4,0.8,1,2c0.6,1.2,1.3,2.9,2,4.6c0.3,0.8,0.7,1.7,1,2.5c0.3,0.8,0.5,1.6,0.7,2.2
			c0.1,0.3,0.2,0.6,0.2,0.9C359.2,353.7,359.3,353.9,359.3,354.1c0.1,0.4,0.1,0.6,0.1,0.6S359.3,354.5,359.3,354.1z"/>
	</g>
	<g>
		<path class="st0" d="M347.8,347.6c0,0,1.7,24,10.6,16.1C361.1,354,347.8,347.6,347.8,347.6z M356.2,362.7c0,0,0-0.2-0.1-0.5
			c-0.1-0.3-0.2-0.8-0.5-1.4c-0.5-1.1-1.2-2.6-2-4c-1.6-2.8-3.4-5.5-3.4-5.5l0,0c0,0,0.1,0.1,0.4,0.4c0.2,0.3,0.6,0.7,0.9,1.1
			c0.4,0.5,0.8,1.1,1.2,1.7c0.4,0.6,0.9,1.3,1.3,2c0.4,0.7,0.8,1.5,1.1,2.2c0.3,0.7,0.6,1.4,0.8,2c0.1,0.3,0.2,0.6,0.2,0.8
			c0,0.3,0.1,0.5,0.1,0.6C356.2,362.5,356.2,362.7,356.2,362.7L356.2,362.7z"/>
	</g>
	<g>
		<path class="st0" d="M358.8,363.5c6.2,11,17.4-11,17.4-11S359.4,353.2,358.8,363.5z M368.8,357.5c-0.7,0.4-1.3,0.9-2,1.4
			c-1.4,0.9-2.7,1.9-3.8,2.6c-0.5,0.4-0.9,0.7-1.2,0.9c-0.3,0.2-0.5,0.3-0.5,0.3l0,0c0,0,0.1-0.1,0.4-0.4c0.1-0.1,0.3-0.3,0.5-0.5
			c0.2-0.2,0.4-0.4,0.6-0.6c0.5-0.4,1-0.9,1.7-1.4c0.6-0.5,1.3-1,2-1.5c2.8-1.9,5.7-3.6,5.7-3.6l0,0c0,0-0.7,0.5-1.7,1.3
			C370.1,356.6,369.5,357.1,368.8,357.5z"/>
	</g>
	<g>
		<path class="st0" d="M342.9,355.3c0,0,2.9,24.6,11.7,16.8C357.3,362.2,342.9,355.3,342.9,355.3z M352.2,371.4L352.2,371.4
			c-0.1,0-0.1-0.2-0.1-0.6c0-0.2-0.1-0.4-0.1-0.7c-0.1-0.3-0.1-0.6-0.3-0.9c-0.2-0.6-0.5-1.3-0.9-2.1c-0.4-0.7-0.8-1.5-1.3-2.3
			c-1.9-3-4.2-5.7-4.2-5.7l0,0c0,0,0.2,0.1,0.5,0.4c0.3,0.3,0.7,0.7,1.1,1.2c0.4,0.5,1,1.1,1.5,1.8c0.5,0.7,1,1.4,1.5,2.2
			c0.5,0.8,0.9,1.6,1.3,2.3c0.2,0.4,0.3,0.8,0.5,1.1c0.1,0.4,0.2,0.7,0.3,1.1c0.1,0.3,0.2,0.6,0.2,0.9c0,0.3,0.1,0.5,0.1,0.7
			C352.2,371.2,352.2,371.4,352.2,371.4z"/>
	</g>
	<g>
		<path class="st0" d="M355.4,370.6c1.8,12.8,18.3-4.6,18.3-4.6S359.2,360.8,355.4,370.6z M368.1,367c-0.3,0-0.6,0-1,0.1
			c-0.3,0.1-0.7,0.2-1.1,0.3c-0.4,0.1-0.8,0.2-1.1,0.3c-0.4,0.1-0.8,0.3-1.1,0.4c-0.4,0.1-0.8,0.3-1.1,0.5c-0.4,0.2-0.7,0.4-1.1,0.5
			c-0.4,0.2-0.6,0.4-0.9,0.6c-0.3,0.2-0.6,0.4-0.8,0.6c-0.5,0.4-0.9,0.7-1.2,0.9c-0.3,0.2-0.4,0.4-0.4,0.4l0,0c0,0,0.5-0.7,1.4-1.5
			c0.2-0.2,0.5-0.4,0.8-0.6c0.3-0.2,0.6-0.5,0.9-0.6c0.3-0.2,0.7-0.4,1.1-0.6c0.4-0.2,0.8-0.4,1.1-0.5c0.4-0.1,0.8-0.3,1.2-0.4
			c0.4-0.1,0.8-0.2,1.2-0.3c0.4-0.1,0.8-0.1,1.1-0.2c0.4-0.1,0.7-0.1,1-0.1c0.6,0,1.2,0,1.5,0c0.4,0,0.6,0,0.6,0l0,0.1
			C370.2,366.8,369.4,366.8,368.1,367z"/>
	</g>
	<g>
		<path class="st0" d="M341.3,365.4c0,0-0.2,24,8.6,16.2C352.6,371.8,341.3,365.4,341.3,365.4z M347.8,379.9c0,0.3-0.1,0.5-0.1,0.5
			h-0.1c0,0,0-0.2,0-0.5c0-0.2,0-0.4-0.1-0.6c0-0.2-0.1-0.5-0.1-0.8c-0.3-1.1-0.8-2.6-1.4-3.9c-1.3-2.8-3-5.4-3-5.4l0,0
			c0,0,0.5,0.6,1.2,1.5c0.3,0.5,0.7,1,1.1,1.7c0.4,0.6,0.7,1.3,1.1,2c0.3,0.7,0.6,1.4,0.8,2.1c0.1,0.3,0.2,0.7,0.3,1
			c0.1,0.3,0.1,0.6,0.2,0.9c0.1,0.3,0.1,0.6,0.1,0.8C347.9,379.5,347.8,379.7,347.8,379.9z"/>
	</g>
	<g>
		<path class="st0" d="M351.9,377.4c0.6,13,18.4-0.2,18.4-0.2S356.5,368.6,351.9,377.4z M364.9,377.2c-0.6-0.1-1.4,0-2.1,0
			c-0.8,0-1.6,0.1-2.5,0.2c-0.8,0.1-1.7,0.2-2.4,0.3c-0.8,0.2-1.5,0.3-2.1,0.5c-1.2,0.3-2,0.6-2,0.6l0,0c0,0,0.7-0.4,1.9-0.8
			c0.3-0.1,0.6-0.2,1-0.3c0.4-0.1,0.7-0.2,1.1-0.3c0.8-0.1,1.6-0.3,2.5-0.4c0.8-0.1,1.7-0.2,2.5-0.1c0.4,0,0.8,0,1.1,0
			c0.4,0,0.7,0,1,0.1c0.6,0.1,1.2,0.2,1.5,0.3c0.4,0.1,0.6,0.1,0.6,0.1l0,0.1C367,377.3,366.2,377.3,364.9,377.2z"/>
	</g>
	<g>
		<path class="st0" d="M336,370.9c0,0,0.6,25.4,9.4,17.5C348.1,378.6,336,370.9,336,370.9z M343.7,387.7L343.7,387.7
			c-0.1,0-0.1-0.2-0.1-0.6c-0.1-0.4-0.2-0.9-0.5-1.5c-0.5-1.3-1.2-2.9-1.9-4.5c-1.5-3.2-3.1-6.4-3.1-6.4l0,0c0,0,0.1,0.2,0.4,0.5
			c0.2,0.3,0.5,0.8,0.9,1.4c0.3,0.6,0.8,1.2,1.1,2c0.4,0.7,0.8,1.5,1.2,2.3c0.4,0.8,0.7,1.6,1,2.4c0.3,0.8,0.5,1.5,0.7,2.2
			c0.2,0.6,0.3,1.2,0.3,1.6C343.7,387.5,343.7,387.7,343.7,387.7z"/>
	</g>
	<g>
		<path class="st0" d="M348,384.1c1.1,14.1,16.3,2.5,16.3,2.5S352.1,377.4,348,384.1z M358.4,386c-0.5-0.1-1-0.3-1.6-0.4
			c-0.6-0.1-1.2-0.3-1.8-0.4c-0.6-0.1-1.3-0.2-1.9-0.2c-0.3,0-0.6,0-0.9,0c-0.3,0-0.5,0-0.8,0c-0.2,0-0.5,0-0.6,0.1
			c-0.2,0-0.4,0-0.5,0.1c-0.3,0.1-0.4,0.1-0.4,0.1l0,0c0,0,0.1-0.1,0.4-0.2c0.1-0.1,0.3-0.1,0.5-0.2c0.2-0.1,0.4-0.1,0.7-0.2
			c0.5-0.1,1.1-0.2,1.7-0.1c0.6,0,1.3,0.1,1.9,0.2c0.6,0.1,1.3,0.3,1.9,0.4c0.6,0.1,1.1,0.4,1.6,0.6c0.5,0.2,0.8,0.4,1.1,0.5
			c0.3,0.1,0.4,0.2,0.4,0.2l0,0C359.9,386.4,359.3,386.2,358.4,386z"/>
	</g>
	<g>
		<path class="st0" d="M343.8,390.7c1.1,14.1,13.8,5.1,13.8,5.1S348,384,343.8,390.7z M354.3,395.6c0,0-0.6-0.2-1.4-0.5
			c-0.4-0.1-0.9-0.3-1.5-0.5c-0.5-0.2-1.1-0.5-1.7-0.7c-0.6-0.2-1.1-0.5-1.6-0.7c-0.5-0.2-1-0.5-1.4-0.7c-0.8-0.4-1.4-0.7-1.4-0.7
			l0,0c0,0,0.2,0,0.4,0.1c0.3,0.1,0.6,0.2,1.1,0.3c0.4,0.2,0.9,0.3,1.5,0.5c0.5,0.2,1.1,0.4,1.7,0.7c0.6,0.3,1.1,0.5,1.6,0.8
			c0.5,0.2,1,0.5,1.4,0.6c0.4,0.2,0.8,0.4,1,0.5C354.1,395.4,354.3,395.5,354.3,395.6L354.3,395.6z"/>
	</g>
	<g>
		<path class="st0" d="M331.6,382.9c0,0-0.2,20.1,8.6,12.2C342.9,385.3,331.6,382.9,331.6,382.9z M338.4,394.6L338.4,394.6
			c0,0-0.1-0.2-0.1-0.5c0-0.1-0.1-0.3-0.1-0.5c0-0.2-0.1-0.4-0.2-0.7c-0.3-0.9-1-2.1-1.7-3.3c-1.4-2.3-3.1-4.4-3.1-4.4l0,0
			c0,0,0.1,0.1,0.4,0.3c0.2,0.2,0.5,0.5,0.9,0.9c0.3,0.4,0.7,0.8,1.1,1.3c0.4,0.5,0.8,1.1,1.1,1.6c0.3,0.6,0.7,1.2,0.9,1.8
			c0.1,0.3,0.3,0.6,0.4,0.9c0.1,0.3,0.2,0.5,0.2,0.8c0.1,0.5,0.2,1,0.2,1.3C338.5,394.4,338.4,394.6,338.4,394.6z"/>
	</g>
	<g>
		<path class="st0" d="M337.7,398.4c1.1,14.1,16.3,2.5,16.3,2.5S341.8,391.6,337.7,398.4z M345.3,400.6c-0.3,0-0.7-0.1-1-0.2
			c-0.3-0.1-0.7-0.1-1-0.2c-0.6-0.1-1.2-0.2-1.7-0.4c-0.5-0.2-0.9-0.3-1.2-0.4c-0.3-0.1-0.4-0.2-0.4-0.2l0,0c0,0,0.2,0.1,0.5,0.2
			c0.3,0.1,0.7,0.1,1.2,0.2c0.5,0.1,1.1,0.1,1.7,0.2c0.3,0.1,0.6,0.1,1,0.2c0.3,0,0.7,0.1,1,0.1c0.7,0.1,1.4,0.2,2,0.3
			c0.6,0.1,1.2,0.2,1.7,0.3c0.5,0.1,0.9,0.2,1.2,0.3c0.3,0.1,0.5,0.1,0.5,0.1l0,0.1C350.8,401.1,348.1,400.8,345.3,400.6z"/>
	</g>
	<g>
		<path class="st0" d="M325.7,393.7c0,0,0.1,15.7,8.9,7.9C337.3,391.7,325.7,393.7,325.7,393.7z M332.7,400.7c0,0.2,0,0.3,0,0.3
			S332.7,400.9,332.7,400.7c-0.1-0.1-0.1-0.2-0.2-0.4c0-0.1-0.1-0.3-0.1-0.5c0-0.2-0.1-0.4-0.2-0.5c-0.1-0.2-0.2-0.4-0.3-0.6
			c-0.1-0.2-0.3-0.4-0.4-0.6c-0.1-0.2-0.3-0.4-0.5-0.5c-0.7-0.7-1.5-1.2-2.1-1.6c-0.6-0.4-1.1-0.6-1.1-0.6s0.5,0.1,1.2,0.3
			c0.3,0.2,0.8,0.3,1.2,0.6c0.2,0.1,0.4,0.3,0.6,0.4c0.2,0.1,0.4,0.3,0.6,0.5c0.2,0.2,0.4,0.4,0.5,0.6c0.1,0.2,0.3,0.4,0.4,0.6
			c0.1,0.2,0.2,0.4,0.3,0.7c0.1,0.2,0.1,0.4,0.1,0.6c0,0.2,0,0.4,0,0.5C332.8,400.4,332.7,400.6,332.7,400.7z"/>
	</g>
	<g>
		<path class="st0" d="M334.7,401.3c-7.8,9.3,4.6,12.3,4.6,12.3S342.9,399.8,334.7,401.3z M338.1,411.4c0,0-0.1-0.5-0.2-1.3
			c0-0.4-0.2-0.8-0.2-1.3c-0.1-0.5-0.2-0.9-0.4-1.4c-0.1-0.5-0.3-0.9-0.4-1.4c-0.2-0.4-0.3-0.9-0.5-1.2c-0.1-0.3-0.3-0.6-0.3-0.8
			c-0.1-0.2-0.1-0.3-0.1-0.3s0.4,0.4,0.7,1c0.2,0.3,0.4,0.7,0.6,1.2c0.2,0.5,0.4,0.9,0.5,1.4c0.1,0.5,0.3,1,0.3,1.5
			c0,0.5,0.1,0.9,0.1,1.3C338.1,410.9,338.1,411.4,338.1,411.4z"/>
	</g>
	<g>
		<path class="st0" d="M380.2,298.9c0,0-0.1,1.5-2.5,4c0,0-9.1,8.3-5.1,17.5C383.8,315.4,380.2,298.9,380.2,298.9z M378.9,305.6
			c-0.1,0.4-0.2,0.9-0.4,1.5c-0.1,0.3-0.3,0.6-0.4,1c-0.2,0.3-0.3,0.7-0.6,1c-0.2,0.3-0.5,0.7-0.7,1c-0.2,0.3-0.4,0.7-0.6,1.1
			c-0.2,0.4-0.4,0.7-0.5,1.1c-0.1,0.4-0.3,0.8-0.4,1.1c-0.3,0.7-0.5,1.4-0.7,2c-0.4,1.2-0.7,2-0.7,2s0.1-0.8,0.4-2.1
			c0.2-0.6,0.3-1.3,0.6-2.1c0.1-0.4,0.3-0.8,0.4-1.2c0.1-0.4,0.3-0.8,0.5-1.2c0.2-0.4,0.4-0.8,0.6-1.1c0.2-0.4,0.5-0.7,0.7-1
			c0.4-0.6,0.8-1.3,1.1-1.8c0.5-1.1,0.7-2,0.7-2S378.9,305.2,378.9,305.6z"/>
	</g>
	<g>
		<path class="st0" d="M363.8,305.2c0,0-3.6,20.3,3.9,22.2c0,0,4.7,0.8,4.4-5.2C372.1,322.2,372.6,309.5,363.8,305.2z M368.7,323.9
			c0,0-0.1-0.9-0.3-2.3c0-0.3-0.1-0.7-0.2-1.1c-0.1-0.4-0.1-0.8-0.2-1.2c-0.1-0.9-0.4-1.7-0.6-2.6c-0.2-0.9-0.5-1.8-0.7-2.6
			c-0.3-0.8-0.5-1.6-0.7-2.3c-0.2-0.7-0.4-1.2-0.6-1.6c-0.1-0.4-0.2-0.6-0.2-0.6s0.5,0.8,1,2.1c0.1,0.3,0.3,0.7,0.4,1
			c0.1,0.4,0.3,0.8,0.4,1.2c0.2,0.8,0.6,1.7,0.8,2.6c0.1,0.5,0.2,0.9,0.3,1.4c0.1,0.4,0.1,0.9,0.2,1.3c0.1,0.9,0.2,1.7,0.2,2.4
			C368.7,323,368.7,323.9,368.7,323.9z"/>
	</g>
	<g>
		<path class="st0" d="M357.9,321.6c0,0,2,22.4,10.8,14.5C371.4,326.3,357.9,321.6,357.9,321.6z M366.4,334c0-0.1-0.1-0.3-0.2-0.5
			c-0.1-0.2-0.2-0.4-0.3-0.6c-0.3-0.5-0.6-0.9-1-1.5c-0.4-0.5-0.8-1.1-1.2-1.7c-0.8-1.1-1.7-2.2-2.3-3.1c-0.6-0.8-1-1.4-1-1.4
			s0.5,0.5,1.3,1.2c0.7,0.8,1.7,1.8,2.5,2.9c0.8,1.1,1.6,2.3,2,3.3c0.1,0.2,0.2,0.5,0.3,0.7C366.4,333.7,366.5,333.8,366.4,334
			c0.1,0.3,0.2,0.5,0.2,0.5S366.5,334.3,366.4,334z"/>
	</g>
	<g>
		<path class="st0" d="M380.5,316.7c-7.3,0.7-9.2,8.9-9.2,8.9c-0.7,6.1,4.1,5.1,4.1,5.1c7.6-2.1,9.9-18.4,9.9-18.4
			C383.1,316,380.5,316.7,380.5,316.7z M380.8,319.6c-0.8,0.8-1.8,1.9-2.9,3c-0.5,0.5-1,1.1-1.5,1.6c-0.5,0.5-0.9,1-1.3,1.5
			c-0.2,0.2-0.3,0.4-0.5,0.6c-0.1,0.2-0.3,0.3-0.4,0.5c-0.2,0.3-0.3,0.4-0.3,0.4s0.1-0.2,0.2-0.5c0.1-0.2,0.2-0.3,0.2-0.6
			c0.1-0.2,0.2-0.5,0.4-0.7c0.2-0.2,0.3-0.5,0.5-0.8c0.2-0.3,0.4-0.6,0.6-0.9c0.5-0.6,0.9-1.2,1.5-1.7c0.5-0.5,1.1-1.1,1.6-1.6
			c0.5-0.5,1.1-0.9,1.5-1.2c0.9-0.7,1.6-1.1,1.6-1.1S381.6,318.7,380.8,319.6z"/>
	</g>
	<g>
		<path class="st0" d="M367.3,340.6c6.3,10.2,15.8-12.6,15.8-12.6S367.4,330.4,367.3,340.6z M376.7,333.6c-0.6,0.5-1.3,1.1-1.9,1.6
			c-0.7,0.5-1.3,1.1-1.9,1.6c-0.6,0.5-1.2,1-1.6,1.4c-0.2,0.2-0.4,0.4-0.6,0.6c-0.2,0.2-0.3,0.4-0.4,0.5c-0.3,0.3-0.4,0.4-0.4,0.4
			s0.1-0.2,0.3-0.5c0.1-0.2,0.2-0.3,0.4-0.6c0.2-0.2,0.4-0.4,0.6-0.7c0.4-0.5,0.9-1,1.5-1.6c0.6-0.6,1.2-1.1,1.9-1.7
			c1.3-1.1,2.7-2.1,3.7-2.9c1-0.7,1.8-1.2,1.8-1.2s-0.6,0.6-1.6,1.4C377.8,332.6,377.3,333.1,376.7,333.6z"/>
	</g>
	<g>
		<g>
			<path class="st0" d="M298.3,413.6l0.2-1c-41.1-8.2-58.6-92.6-58.8-93.4l-1,0.2c0,0.2,4.2,20.7,13.5,41.9
				C260.7,380.9,276.4,409.2,298.3,413.6z"/>
		</g>
		<g>
			<path class="st0" d="M298.7,414.2l-0.5-0.1c-21.3-4.3-37-31-46.5-52.6c-9.3-21.4-13.5-41.8-13.5-42l-0.1-0.5l2-0.4l0.1,0.5
				c0.2,0.8,17.5,84.9,58.4,93l0.5,0.1L298.7,414.2z M239.3,319.7c0.2,1,0.7,3.2,1.5,6.5C240,323,239.5,320.7,239.3,319.7
				L239.3,319.7z"/>
		</g>
	</g>
	<g>
		<path class="st0" d="M266,386.5c-22.8,3.1-5.5,20.4-5.5,20.4c-3.8-17.8,10.5-11.4,12.7-10.3c0.2,0.2,0.3,0.3,0.3,0.3s0-0.1,0-0.2
			l0,0l0-0.1c-0.3-2.1-2.6-18.2,13.6-9.3C287,387.4,275.5,366,266,386.5z"/>
	</g>
	<g>
		<path class="st0" d="M260.4,377.8c-19.4,2.2-6.4,21.2-6.4,21.2c-3.2-14.6,12.3-12.3,12.3-12.3s1.5-16.6,15.2-9.1
			C281.6,377.6,268.6,361.2,260.4,377.8z"/>
	</g>
	<g>
		<path class="st0" d="M247.5,348.1c-22.8-3-10.7,18.2-10.7,18.2c1-18.2,13.2-8.2,15-6.6c0.1,0.3,0.2,0.4,0.2,0.4s0-0.1,0-0.2l0,0
			l0-0.1c0.2-2.1,2.3-18.3,15.5-5.4C267.6,354.5,262.1,330.8,247.5,348.1z"/>
	</g>
	<g>
		<path class="st0" d="M244.7,338.3c-19.1-3.9-12.6,18.2-12.6,18.2c1.5-14.8,15.5-7.9,15.5-7.9s6.5-15.3,17.3-4
			C264.9,344.7,257.6,325,244.7,338.3z"/>
	</g>
	<g>
		<path class="st0" d="M232.6,320.7c-0.6-2.3,0.6-3.9,2.7-6.3c0.9-1,2-1.6,3.2-1.6c1.1,0,2,0.4,2.6,0.8c-1.5-2.5-9.2-5.1-13.5,1.1
			c-4.8,6.9,3.4,14.8,3.4,14.8C230.8,325.7,231.5,322.9,232.6,320.7z"/>
	</g>
	<g>
		<path class="st0" d="M255.2,314.8c-4.2-6.1-11.7-3.7-13.4-1.3c0.6-0.4,1.6-0.9,2.7-0.9c1,0,2,0.4,2.9,1.2c2.7,2.5,4.2,4.1,3.1,7.3
			l0,0.1c1,2.1,1.6,4.8,1.4,8.4C251.8,329.5,260,321.7,255.2,314.8z"/>
	</g>
	<g>
		<path class="st0" d="M227.2,314.5c2.3-3.4,5.4-4.1,7.6-4.1c2.3,0,4.4,0.8,5.7,1.8c0.3,0.1,0.7,0.2,0.9,0.3c0,0-1.7-7.1-10.1-6.6
			c-8.4,0.5-4.8,8.6-6,10.2c-0.3,0.4,0.2,0.3,1.1-0.1C226.5,315.5,226.8,315,227.2,314.5z"/>
	</g>
	<g>
		<path class="st0" d="M257.5,316c-1.2-1.6,2.4-9.7-6-10.2c-8.4-0.5-10.1,6.6-10.1,6.6c0.3-0.1,0.6-0.2,1-0.3c1.3-1,3.4-1.8,5.7-1.8
			c2.2,0,5.2,0.7,7.6,4.1c0.3,0.5,0.6,1,0.8,1.5C257.3,316.3,257.7,316.4,257.5,316z"/>
	</g>
	<g>
		<path class="st0" d="M247,314.2c-2.6-2.4-5.2-0.1-5.6,0.3c0,0,0,0.9,0.1,2.1c0,0.6,0,1.4,0.1,2.2c0,0.4,0,0.8,0.1,1.2
			c0,0.4,0,0.8,0.1,1.3c0.1,0.8,0.1,1.7,0.2,2.5c0,0.4,0.1,0.8,0.1,1.1c0,0.4,0,0.7,0.1,1c0.2,1.3,0.3,2.1,0.3,2.1s-0.3-0.8-0.7-2
			c-0.1-0.3-0.2-0.7-0.2-1c-0.1-0.4-0.1-0.7-0.2-1.1c-0.2-0.8-0.2-1.7-0.3-2.5c-0.1-1.7,0-3.4,0.2-4.7c0.1-1.3,0.4-2.1,0.4-2.1
			c-0.1-0.1-3.1-2.6-5.7,0.3c-2.6,2.9-3.5,4.4-2.2,7c1.3,2.6,8.8,7.4,8.9,11.1c-0.4-3.8,6.5-9.2,7.5-12
			C250.9,318.1,249.8,316.8,247,314.2z"/>
	</g>
	<g>
		<path class="st0" d="M241.4,307c0-0.5,0-1,0-1.5c0-0.5,0-0.9,0-1.3c0-0.4,0-0.7-0.1-0.9c0-0.2-0.1-0.3-0.1-0.3
			c-5.2-2.7-8.3,2.2-8.3,2.2s0.1,0.1,0.2,0.3c5.1,0.4,7.4,3.8,8.3,5.7c0,0,0-0.5,0-1.3C241.3,309,241.4,308,241.4,307z"/>
	</g>
	<g>
		<path class="st0" d="M241.2,302.9c0,0,0,0.1,0.1,0.3c0,0.2,0.1,0.5,0.2,0.9c0.1,0.4,0.1,0.8,0.1,1.3c0,0.5,0,1,0.1,1.5
			c-0.1,1-0.1,2.1-0.2,2.8c-0.1,0.8-0.1,1.3-0.1,1.3c0.9-1.9,3.1-5.2,8-5.7c0.1-0.2,0.2-0.3,0.2-0.3S246.5,300.2,241.2,302.9z"/>
	</g>
	<g>
		<polygon class="st0" points="240.8,313.9 238.9,298 239.4,298 241.3,313.9 		"/>
	</g>
	<g>
		
			<ellipse transform="matrix(0.9991 -4.347833e-02 4.347833e-02 0.9991 -12.7324 10.6796)" class="st0" cx="239.1" cy="298" rx="0.5" ry="0.3"/>
	</g>
	<g>
		
			<rect x="240.8" y="298" transform="matrix(0.9996 -2.723456e-02 2.723456e-02 0.9996 -8.2442 6.6772)" class="st0" width="0.5" height="16"/>
	</g>
	<g>
		
			<ellipse transform="matrix(0.9999 -1.248737e-02 1.248737e-02 0.9999 -3.7024 3.0297)" class="st0" cx="240.8" cy="298" rx="0.5" ry="0.3"/>
	</g>
	<g>
		
			<rect x="233.5" y="305.5" transform="matrix(7.571128e-03 -1 1 7.571128e-03 -65.8571 545.0562)" class="st0" width="16.3" height="0.5"/>
	</g>
	<g>
		<ellipse class="st0" cx="241.7" cy="297.6" rx="0.5" ry="0.3"/>
	</g>
	<g>
		
			<rect x="234.2" y="305.8" transform="matrix(0.1062 -0.9943 0.9943 0.1062 -87.8896 514.3597)" class="st0" width="16" height="0.5"/>
	</g>
	<g>
		
			<ellipse transform="matrix(5.550149e-02 -0.9985 0.9985 5.550149e-02 -68.2292 524.1985)" class="st0" cx="243" cy="298.2" rx="0.3" ry="0.5"/>
	</g>
</g>
</svg>
